<?xml version="1.0" standalone="no"?>
<!DOCTYPE svg PUBLIC "-//W3C//DTD SVG 1.1//EN" "http://www.w3.org/Graphics/SVG/1.1/DTD/svg11.dtd" >
<svg xmlns="http://www.w3.org/2000/svg">
<metadata></metadata>
<defs>
<font id="eponymousitalic" horiz-adv-x="1087" >
<font-face units-per-em="2048" ascent="1556" descent="-492" />
<missing-glyph horiz-adv-x="481" />
<glyph unicode="&#xfb01;" horiz-adv-x="966" d="M705 158q-9 -40 -3 -57t35 -17q42 0 72 12l-25 -94q-58 -35 -118 -35q-80 0 -111.5 45.5t-9.5 130.5l205 787q6 25 -9.5 37t-42.5 12h-266l-289 -1133q-16 -58 -33 -98.5t-45 -79t-70.5 -58.5t-98.5 -20q-43 0 -76 12.5t-50.5 32.5t-28 46t-9 52.5t5.5 51.5q9 42 39 69 t71 27q43 0 62.5 -30.5t9.5 -69.5q-15 -48 -59 -62q7 -20 35 -20q31 0 52.5 33t41.5 102q7 25 13.5 58t9.5 53l3 20l258 1014h-90l29 115h92l55 213q65 254 308 254q120 0 176.5 -62t40.5 -139q-9 -41 -39 -67.5t-72 -26.5q-43 0 -64 30.5t-10 71.5q11 42 58 53 q-29 33 -80 33q-60 0 -102.5 -36.5t-59.5 -102.5q-15 -57 -26 -100.5t-16 -65.5t-7.5 -35.5t-2.5 -16.5l-1 -3h485z" />
<glyph unicode="&#xfb02;" horiz-adv-x="987" d="M709 158q-9 -40 -2 -57t38 -17q34 0 70 12l-27 -94q-50 -35 -118 -35q-78 0 -110.5 46t-10.5 130l307 1188q10 33 -31 49q0 -8 -4 -20q-12 -43 -40 -68.5t-66 -25.5q-46 0 -66.5 29.5t-9.5 70.5q14 44 59 59q-10 29 -53 29q-53 0 -84.5 -33t-52.5 -104q-9 -32 -21 -88 t-20 -95l-8 -40h184l-29 -115h-186l-289 -1133q-15 -55 -32 -95.5t-45 -80t-69.5 -60t-96.5 -20.5q-44 0 -77.5 12t-51.5 32t-29 46t-9.5 52.5t5.5 52.5q11 42 40.5 68t69.5 26q44 0 63.5 -29.5t8.5 -68.5q-15 -48 -57 -62q4 -20 35 -20q30 0 51.5 32.5t40.5 102.5 q6 20 12.5 53t9.5 55l4 23l258 1014h-90l31 115h90l55 213q15 54 34.5 95t51.5 79.5t82 59t115 20.5q130 0 174 -82q81 5 182 77h76z" />
<glyph horiz-adv-x="0" />
<glyph horiz-adv-x="682" />
<glyph unicode=" "  horiz-adv-x="481" />
<glyph unicode="&#x09;" horiz-adv-x="481" />
<glyph unicode="&#xa0;" horiz-adv-x="481" />
<glyph unicode="!" horiz-adv-x="487" d="M383 1425h178l-334 -1124h-92zM111 -16q-56 0 -83.5 36.5t-15.5 88.5q11 44 45 71t84 27q56 0 84.5 -35.5t16.5 -87.5q-11 -44 -46.5 -72t-84.5 -28z" />
<glyph unicode="&#x22;" horiz-adv-x="653" d="M362 1489h156l-133 -426h-104zM621 1489h155l-133 -426h-104z" />
<glyph unicode="#" horiz-adv-x="1126" d="M1165 922h-207l-102 -392h209l-33 -118h-205l-108 -412h-135l108 412h-307l-109 -412h-135l109 412h-209l33 118h205l102 392h-207l31 118h207l100 385h135l-100 -385h307l100 385h136l-101 -385h207zM721 530l102 392h-307l-102 -392h307z" />
<glyph unicode="$" horiz-adv-x="1013" d="M791 1421q60 -8 109 -26.5t87.5 -50.5t51 -77t-0.5 -106q-19 -68 -66 -108.5t-106 -40.5q-54 0 -78 29t-16 65q8 33 46 53t75 0q26 66 -34 101.5t-157 35.5q-58 0 -107 -14t-82.5 -36.5t-60 -54t-42 -64.5t-25.5 -70q-8 -31 -8 -56.5t4 -44.5t18.5 -36t26.5 -28t38.5 -24 t44 -20.5t52.5 -20.5q157 -54 212 -83q131 -69 154 -188q16 -81 -14 -194q-27 -101 -81 -177t-125.5 -119.5t-144 -66t-152.5 -28.5l-35 -135h-137l34 135q-177 10 -248.5 84.5t-43.5 180.5q19 70 67 107.5t100 37.5q65 0 76 -47q11 -40 -21 -75q-31 -33 -75 -26 q-28 -56 28 -96.5t189 -40.5q65 0 124.5 15t114 47.5t95 89.5t59.5 135q10 39 10.5 71.5t-2.5 55t-19 43.5t-27 32.5t-39 26.5t-42 21t-49 20q-138 48 -176 66q-167 78 -192 206q-13 66 8 148q43 158 162 247t282 103l35 133h139z" />
<glyph unicode="%" horiz-adv-x="1718" d="M406 530q-87 0 -144.5 36.5t-82.5 103t-25 153.5t24 193q92 393 377 393q91 0 149 -38.5t80.5 -107t21 -153t-25.5 -186.5q-94 -394 -374 -394zM1456 1393h141l-1251 -1393h-141zM410 625q81 0 144.5 83.5t100.5 237.5q22 104 23.5 186t-31 132.5t-96.5 50.5 q-85 0 -147.5 -84.5t-96.5 -237.5q-41 -160 -14.5 -264t117.5 -104zM1239 -16q-87 0 -144.5 36.5t-82 103t-24.5 153t24 192.5q92 393 377 393q91 0 149 -38.5t80.5 -107t21 -153t-25.5 -186.5q-94 -393 -375 -393zM1243 78q82 0 145.5 83.5t100.5 237.5q22 104 23 186 t-31.5 132.5t-96.5 50.5q-84 0 -146 -84.5t-97 -237.5q-41 -160 -15 -264t117 -104z" />
<glyph unicode="&#x26;" horiz-adv-x="1325" d="M1079 541q-109 -231 -237 -359q60 -73 98 -84q42 -11 94 21.5t82 79.5l72 -97q-40 -54 -103.5 -94.5t-144.5 -40.5q-118 0 -221 121q-177 -121 -373 -121q-84 0 -148 24.5t-100.5 65.5t-57.5 96t-19 116.5t16 125.5q35 134 125.5 232t247.5 178q-38 174 -15 317 q11 70 37.5 124t60 87.5t77.5 54.5t87 29t91 8q139 0 212 -82.5t31 -230.5q-12 -39 -32.5 -76t-40.5 -64.5t-53 -56.5t-54.5 -46t-60 -40.5t-55 -32t-55 -28.5t-44.5 -23q21 -90 71.5 -218.5t108.5 -231.5q112 118 176 280q10 27 -3 36.5t-50 11.5l25 96h340l-25 -96 q-57 -4 -96.5 -20.5t-63.5 -61.5zM737 1305q-67 0 -110 -41.5t-58 -100t-17.5 -124t2.5 -110t11 -61.5q2 1 25.5 12t42 21t48.5 28t54 38t49 45.5t43 57t27 65.5q22 87 -14 128.5t-103 41.5zM383 102q124 0 262 91q-50 83 -108.5 224.5t-94.5 256.5q-214 -116 -254 -314 q-22 -118 30 -188t165 -70z" />
<glyph unicode="'" horiz-adv-x="397" d="M362 1489h156l-133 -426h-104z" />
<glyph unicode="(" horiz-adv-x="501" d="M709 1556q-8 -13 -64 -97.5t-65 -99.5t-54.5 -87.5t-57.5 -97.5t-47.5 -90.5t-51 -106.5t-41.5 -105t-44.5 -126.5t-37.5 -133.5q-16 -63 -28 -122t-21 -105.5t-13 -101t-7.5 -88.5t-1.5 -88t2.5 -79.5t6.5 -83.5t8.5 -79t11 -87.5t11.5 -88.5h-115q-30 114 -45 179 t-28.5 163t-11 179.5t18 192.5t48.5 238q18 69 38.5 132.5t39 115t46.5 108t47 95t55 94t57 87t66.5 92t68.5 91t78 100.5h131z" />
<glyph unicode=")" horiz-adv-x="499" d="M-172 -319q8 13 64 97.5t65 99.5t54.5 87.5t57.5 97.5t47.5 90.5t51 106.5t41.5 105t44.5 126.5t37.5 133.5q16 63 28 122t21 105.5t13 101t7.5 88.5t1.5 88t-2.5 79.5t-6.5 83.5t-8.5 79t-11 87.5t-11.5 88.5h114q30 -115 45 -179t29 -163t11.5 -180t-18 -192 t-48.5 -238q-18 -69 -38.5 -132.5t-39 -115t-46.5 -108t-47 -95t-55 -94t-57 -87t-66.5 -92t-68.5 -91t-78 -100.5h-131z" />
<glyph unicode="*" horiz-adv-x="530" d="M694 1409l-145 -68l113 -67l-64 -78l-106 80l-33 -148h-88l43 144l-140 -76l-26 78l143 67l-110 68l63 80l105 -82l34 149h88l-43 -143l142 76z" />
<glyph unicode="+" horiz-adv-x="894" d="M838 680v-123h-308v-311h-131v311h-307v123h307v311h131v-311h308z" />
<glyph unicode="," horiz-adv-x="391" d="M166 137q21 -38 9 -105t-48 -112q-58 -73 -178 -106v71q30 9 56 30t30 42q4 19 -27 43q-27 13 -38 43t-3 61q11 36 43.5 60t71.5 24q64 0 84 -51z" />
<glyph unicode="-" horiz-adv-x="628" d="M94 680h508l-33 -123h-506z" />
<glyph unicode="." horiz-adv-x="374" d="M55 -12q-51 0 -75.5 32t-12.5 82q9 39 40 62.5t73 23.5q53 0 77 -32.5t13 -77.5q-9 -41 -40.5 -65.5t-74.5 -24.5z" />
<glyph unicode="/" horiz-adv-x="862" d="M924 1589h151l-1079 -1874h-152z" />
<glyph unicode="0" horiz-adv-x="1097" d="M457 -33q-129 0 -214 64.5t-119.5 176.5t-32 254.5t41.5 307.5q71 306 218.5 480.5t371.5 174.5q128 0 212.5 -60t119.5 -167t33 -247t-41 -308q-27 -112 -62.5 -208t-88 -184t-115 -149.5t-145.5 -98t-179 -36.5zM469 94q77 0 143 45t117 126t89 181t67 224 q41 184 43 323.5t-52.5 222t-162.5 82.5q-79 0 -146.5 -43.5t-118.5 -122t-89 -175t-66 -214.5q-32 -137 -39 -253.5t11.5 -205.5t70.5 -139.5t133 -50.5z" />
<glyph unicode="1" horiz-adv-x="516" d="M248 156q-3 -21 18.5 -39t59.5 -21l-27 -96h-344l27 96q41 3 71.5 21.5t36.5 40.5l250 968q5 26 -20.5 43t-79.5 17l26 98q113 0 197 109h102z" />
<glyph unicode="2" horiz-adv-x="1060" d="M735 1425q101 0 177.5 -28.5t118.5 -76.5t59.5 -110t6 -131t-47.5 -137q-36 -70 -93.5 -131.5t-131 -110.5t-137 -84.5t-149.5 -79t-130 -69.5q-57 -35 -102 -72t-70.5 -65t-46 -62.5t-27.5 -52t-17 -45.5q61 42 142 23q29 -7 79 -31t103.5 -42t110.5 -18q88 0 141 48 t86 151l137 -39q-89 -295 -369 -295q-55 0 -108 15t-87.5 33.5t-78 39t-76.5 27.5q-88 20 -112 -41l-21 -41h-115l-3 19q-2 19 -2.5 25.5t-1 26t0.5 33.5t4.5 34t8.5 40q67 268 399 438q21 11 69 35t85 43t87.5 47.5t90.5 57.5t80 64t69.5 75.5t46.5 83.5q15 38 20 75 t-4.5 74t-33.5 65.5t-73 46t-118 17.5q-131 0 -218.5 -56.5t-84.5 -135.5q20 18 49.5 18.5t51.5 -24t14 -60.5q-8 -35 -40 -57t-81 -22q-75 0 -113 51.5t-18 132.5q31 116 160.5 197t312.5 81z" />
<glyph unicode="3" horiz-adv-x="1034" d="M688 1425q205 0 305 -110t54 -289q-51 -208 -277 -295q42 -21 74.5 -51.5t59.5 -78.5t31.5 -107.5t-9.5 -139.5q-17 -79 -55.5 -145.5t-102.5 -122t-163.5 -87.5t-225.5 -32q-93 0 -167.5 17.5t-120.5 47t-76 69t-34.5 83.5t5.5 90q20 70 76 112t120 42q57 0 81 -32 t16 -72q-9 -36 -40.5 -53.5t-60.5 -14t-33 19.5q-14 -24 -17 -48.5t8.5 -48.5t37 -43t74 -30.5t114.5 -11.5q94 0 166.5 23t118.5 64t74 92t41 114q16 65 6 113.5t-33.5 81.5t-67 53t-93.5 29t-113 10l24 106q170 3 269 79.5t129 199.5q29 113 -25.5 177t-198.5 64 q-139 0 -214.5 -56t-75.5 -136q13 14 36 17t44 -4.5t32.5 -29t3.5 -51.5q-12 -37 -44 -57t-76 -20q-81 0 -114 56t-15 132q29 121 154.5 197.5t297.5 76.5z" />
<glyph unicode="4" horiz-adv-x="1044" d="M1016 1393l-238 -912h189l-35 -123h-184l-54 -204q-3 -21 18.5 -38t59.5 -20l-27 -96h-331l24 96q39 3 68 19.5t37 36.5l53 206l-588 -2l33 123l813 914h162zM205 479l424 2l178 688z" />
<glyph unicode="5" horiz-adv-x="1024" d="M709 1239q-164 0 -256 18l-119 -444q126 86 289 86q86 0 153.5 -24t118 -77t62.5 -137.5t-15 -205.5q-27 -103 -78.5 -190.5t-126 -154.5t-176.5 -105t-221 -38q-192 0 -289 87.5t-65 213.5q19 74 74 115t120 41q54 0 82.5 -27.5t16.5 -70.5q-12 -37 -42.5 -55t-58 -14 t-33.5 22q-41 -75 6 -130t177 -55q92 0 169.5 32t131 87t89.5 120t56 140q81 301 -209 301q-193 0 -297 -125h-137q38 86 64 185l141 559q233 -21 383 -21q207 0 375 21l-13 -62q-134 -92 -372 -92z" />
<glyph unicode="6" horiz-adv-x="1042" d="M756 1425q160 0 246 -81t55 -197q-20 -71 -74 -119.5t-131 -48.5q-55 0 -76.5 27t-11.5 63q9 34 38 54.5t56.5 19t34.5 -24.5q18 25 19.5 56t-13.5 59t-55.5 47t-98.5 18q-153 -4 -260.5 -142t-181.5 -386q196 109 356 109q83 0 147.5 -27t109 -84.5t53 -146 t-20.5 -211.5q-59 -230 -199.5 -336.5t-338.5 -106.5q-89 0 -155.5 22.5t-114 74t-68 130.5t-13.5 196.5t45 268.5q96 368 258 567t394 199zM788 422q43 165 -5.5 248.5t-174.5 83.5q-58 0 -117.5 -17t-106 -44t-74.5 -46t-46 -35q-40 -164 -42.5 -279t50.5 -177t164 -62 q129 0 220 83t132 245z" />
<glyph unicode="7" horiz-adv-x="878" d="M1040 1393q-5 -20 -15 -58t-14.5 -55.5t-13 -42.5t-18.5 -45q-38 -81 -110 -181t-138.5 -177t-134.5 -162t-98 -137q-166 -303 -160 -535h-168q-2 97 42.5 254.5t125.5 292.5q37 61 99 136.5t122.5 143t120.5 140t108.5 151.5t71.5 152h-352q-82 0 -128 -51t-104 -191 l-88 23l107 342h745z" />
<glyph unicode="8" horiz-adv-x="1067" d="M420 -33q-233 0 -344 109t-66 280q16 62 52.5 119t78.5 97t95.5 76.5t93 57t82.5 39.5q-23 13 -44.5 29.5t-45.5 40t-41 54t-29 66t-11.5 81t13.5 94.5q13 48 37.5 91.5t64.5 85t91.5 71.5t123.5 48.5t156 18.5q201 0 299.5 -93.5t58.5 -250.5q-15 -60 -53 -117 t-87 -100.5t-98 -75.5t-95 -53q21 -12 38 -23.5t40 -29.5t41 -38t37 -44.5t30.5 -53.5t19 -62t6 -73t-11.5 -83q-41 -167 -176.5 -264t-355.5 -97zM627 805l15 7q14 8 25 13.5t32 17.5t38 23t40 28t41 33t38.5 37.5t35 43t27 47t19.5 51.5q23 95 -39 143.5t-201 48.5 q-233 0 -286 -198q-8 -30 -8.5 -57t5.5 -49.5t20 -44t32 -39t44.5 -36t55 -34.5t66.5 -35zM440 94q145 0 237 74t109 170q12 65 0 114t-58 91.5t-77 63t-109 62.5q-8 5 -12 7q-37 -19 -57.5 -30t-60 -34t-64.5 -41t-59 -46.5t-55.5 -55.5t-41 -62t-28.5 -71 q-28 -108 44.5 -175t231.5 -67z" />
<glyph unicode="9" horiz-adv-x="1044" d="M686 1425q85 0 152.5 -24t118.5 -77.5t76.5 -134.5t21.5 -200.5t-41 -269.5q-102 -394 -254 -573t-393 -179q-176 0 -268.5 81.5t-63.5 197.5q18 71 74.5 119.5t126.5 48.5q54 0 79.5 -25.5t14.5 -64.5q-8 -33 -37.5 -53.5t-58 -19.5t-35.5 23q-13 -19 -15.5 -42.5t8 -48 t33 -44.5t65.5 -33t99 -12q160 4 259 126t173 388q-158 -92 -321 -92q-88 0 -155.5 27t-108.5 75.5t-61.5 114t-17 143.5t28.5 162q60 195 194.5 291t305.5 96zM340 1004q-45 -162 12 -262.5t201 -100.5q100 0 188.5 45t122.5 82q66 248 15 389t-205 141q-115 0 -204 -73.5 t-130 -220.5z" />
<glyph unicode=":" horiz-adv-x="409" d="M274 696q-51 0 -75.5 32.5t-12.5 82.5q9 39 40 62.5t73 23.5q53 0 77 -33t13 -78q-9 -41 -40.5 -65.5t-74.5 -24.5zM90 -12q-51 0 -75.5 32t-12.5 82q9 39 40 62.5t73 23.5q53 0 77 -32.5t13 -77.5q-9 -41 -40.5 -65.5t-74.5 -24.5z" />
<glyph unicode=";" horiz-adv-x="425" d="M274 696q-51 0 -75.5 32.5t-12.5 82.5q9 39 40 62.5t73 23.5q53 0 77 -33t13 -78q-9 -41 -40.5 -65.5t-74.5 -24.5zM201 137q21 -38 9 -105t-48 -112q-58 -73 -178 -106v71q30 9 56 30t30 42q4 19 -27 43q-27 13 -38 43t-3 61q11 36 43.5 60t71.5 24q64 0 84 -51z" />
<glyph unicode="&#x3c;" horiz-adv-x="942" d="M817 946v-133l-577 -192l577 -193v-133l-725 266v119z" />
<glyph unicode="=" horiz-adv-x="976" d="M129 819h758v-123h-758v123zM129 547h758v-123h-758v123z" />
<glyph unicode="&#x3e;" horiz-adv-x="940" d="M162 946l725 -266v-119l-725 -266v133l577 193l-577 192v133z" />
<glyph unicode="?" horiz-adv-x="956" d="M281 307q-18 30 -25.5 65t-2.5 77.5t39 88.5t95 85q23 16 94 59t119.5 76.5t108 82.5t98.5 105.5t53 116.5q26 106 -34 171.5t-201 65.5q-76 0 -136.5 -19.5t-94 -49.5t-49.5 -62.5t-13 -60.5q15 16 38 18t42 -7.5t30 -31t4 -49.5q-10 -33 -40 -54t-78 -21 q-75 0 -113.5 53t-15.5 137q33 125 163.5 198.5t296.5 73.5q97 0 175 -27t128.5 -79t67 -126.5t-9.5 -168.5q-17 -64 -52 -122.5t-71 -98t-88.5 -80.5t-85 -61.5t-80.5 -47.5q-37 -23 -60 -38t-50.5 -33t-43 -30t-34 -27.5t-27.5 -26.5t-19.5 -26t-14.5 -27.5t-7 -29 t-2.5 -33t2.5 -36.5h-106zM291 -16q-57 0 -83.5 36t-14.5 89q11 44 44.5 71t81.5 27q58 0 86.5 -35.5t16.5 -87.5q-11 -44 -46.5 -72t-84.5 -28z" />
<glyph unicode="@" horiz-adv-x="1703" d="M1042 1282q105 0 194 -17.5t167 -55.5t131 -98t85.5 -145t31.5 -197t-31 -253q-25 -107 -64 -199t-93.5 -168.5t-129 -120.5t-159.5 -44q-110 0 -156 73q-136 -90 -285 -90q-86 0 -152 30t-106 82.5t-61 123t-20.5 152t20.5 169.5q53 231 197.5 365.5t342.5 134.5 q97 0 155 -31t81 -73l45 51h108l-200 -776q-23 -84 51 -84q46 0 89 32.5t75 82t59.5 114.5t45 124t28.5 116q29 129 13.5 236t-68.5 184.5t-157 120t-251 42.5q-166 0 -308 -53.5t-241.5 -144.5t-166 -203.5t-97.5 -239.5q-18 -75 -21.5 -156.5t8 -165.5t50.5 -158.5 t102 -119.5q86 -64 215 -77.5t241.5 13.5t184.5 76l78 -57q-110 -77 -232.5 -115t-231.5 -36t-203.5 29.5t-163.5 76.5q-130 93 -177.5 273t5.5 417q86 362 351 561t621 199zM756 94q59 0 126.5 25.5t118.5 79.5q5 24 11 41l116 452q12 59 5.5 99t-34 64t-61 34t-75.5 10 q-61 0 -118 -20.5t-111.5 -64.5t-97.5 -123t-67 -185q-43 -184 6 -298t181 -114z" />
<glyph unicode="A" horiz-adv-x="1243" d="M995 152q1 -25 22 -39.5t52 -16.5l-25 -96h-358l25 96q43 2 73.5 16.5t30.5 37.5l-10 245h-465l-135 -243q-13 -26 8 -40t57 -16l-26 -96h-326l25 96q75 7 110 60l705 1237h178zM403 512h398l-25 676z" />
<glyph unicode="B" horiz-adv-x="1140" d="M1130 1016q-55 -230 -196 -291q80 -51 106 -146t-6 -217q-95 -362 -456 -362h-660l25 96q40 3 70 20.5t38 39.5l279 1077q5 23 -16 42.5t-60 20.5l25 97h585q176 0 245.5 -94t20.5 -283zM713 784q62 0 105.5 17.5t70.5 54.5t42.5 77t29.5 101q29 128 -5 182t-149 54h-299 l-127 -486h332zM864 399q14 53 14 98t-17 85t-64 63t-121 23h-324l-141 -545h364q66 0 115.5 20t82.5 59.5t53.5 85.5t37.5 111z" />
<glyph unicode="C" horiz-adv-x="1214" d="M557 -33q-145 0 -249.5 60.5t-156 168.5t-58.5 257.5t42 328.5q85 320 259 481.5t403 161.5q214 0 327 -137l47 105h117l-76 -334l-153 -25q-38 253 -266 256q-173 1 -294.5 -135t-189.5 -399q-37 -142 -39 -261.5t28.5 -206t97 -136t163.5 -50.5q137 -1 247 83.5 t165 215.5l157 -24q-91 -200 -240.5 -305t-330.5 -105z" />
<glyph unicode="D" horiz-adv-x="1173" d="M762 1393q125 0 214 -56.5t132.5 -158.5t48.5 -244t-39 -313q-80 -325 -260 -473t-452 -148h-488l25 96q41 3 73 23.5t37 42.5l277 1071q5 21 -17 40.5t-59 22.5l25 97h483zM944 645q18 78 27 148.5t9.5 143t-16 131t-47.5 105t-87 72t-132 25.5h-190l-297 -1147h207 q405 0 526 522z" />
<glyph unicode="E" horiz-adv-x="1042" d="M1114 1051l-98 -15q7 72 5 123.5t-30.5 80.5t-87.5 30h-395l-127 -498h260q41 0 73.5 31.5t49.5 93.5h90l-96 -371h-90q17 62 -0.5 93.5t-59.5 31.5h-260l-137 -528h389q88 1 141 59.5t101 179.5l88 -20l-113 -342h-899l25 96q39 3 71.5 23.5t38.5 42.5l279 1073 q5 21 -17.5 39.5t-60.5 21.5l25 97h899z" />
<glyph unicode="F" horiz-adv-x="1044" d="M1178 1393l-64 -342l-98 -15q7 73 4.5 124.5t-32.5 80t-91 29.5h-389l-133 -516h260q41 0 73.5 33t49.5 96h90l-96 -377h-90q17 62 0.5 94.5t-58.5 32.5h-260l-123 -473q-5 -23 17.5 -42t60.5 -22l-27 -96h-354l25 96q39 3 71.5 23.5t38.5 42.5l279 1073q3 21 -18.5 39.5 t-59.5 21.5l25 97h899z" />
<glyph unicode="G" horiz-adv-x="1259" d="M1282 1393l-76 -336l-147 -23q-15 119 -80 186t-178 68q-181 3 -301 -131.5t-189 -398.5q-26 -97 -35 -189t2 -176.5t42 -148.5t91 -102.5t144 -39.5q81 -1 144 21t101 53t68 84t44 95.5t30 105.5q12 46 -20 64t-95 18l31 112h371l-29 -112q-95 0 -121 -97 q-2 -6 -29.5 -116t-54.5 -215.5t-30 -114.5h-103l-8 59q-123 -92 -311 -92q-142 0 -243.5 60.5t-150.5 167.5t-56 254t40 321q84 328 256 491.5t422 163.5q92 0 174.5 -35t130.5 -90l58 93h108z" />
<glyph unicode="H" horiz-adv-x="1253" d="M1415 1393l-24 -97q-40 -3 -73 -23.5t-38 -41.5l-279 -1071q-3 -23 19 -42t59 -22l-24 -96h-357l27 96q39 3 71 23t38 43l129 493h-615l-127 -495q-6 -22 16.5 -41.5t61.5 -22.5l-25 -96h-356l25 96q39 3 71.5 23t38.5 43l279 1073q3 21 -18.5 39.5t-59.5 21.5l25 97h356 l-27 -97q-38 -3 -70 -20.5t-38 -38.5l-117 -457h612l117 455q3 21 -18.5 39.5t-59.5 21.5l25 97h356z" />
<glyph unicode="I" horiz-adv-x="509" d="M653 1393l-24 -97q-39 -3 -73 -21t-40 -38l-278 -1077q-6 -22 18 -41.5t63 -22.5l-26 -96h-359l25 96q39 3 72 23.5t39 42.5l276 1073q6 21 -16 39.5t-62 21.5l27 97h358z" />
<glyph unicode="J" horiz-adv-x="663" d="M823 1393l-26 -97q-41 -3 -72.5 -22t-36.5 -43l-272 -1051q-31 -116 -113 -172.5t-190 -56.5q-105 0 -152.5 57t-26.5 135q13 56 47.5 91.5t88.5 35.5q38 0 59.5 -27t11.5 -69q-7 -30 -27 -49t-44 -21q13 -38 61 -38q39 0 75 27.5t52 80.5q7 30 11.5 71.5t6.5 51.5 l244 938q5 21 -17.5 39.5t-60.5 21.5l25 97h356z" />
<glyph unicode="K" horiz-adv-x="1179" d="M987 1393h352l-26 -97q-73 0 -183 -86l-487 -389l277 -655q10 -26 33.5 -46.5t54.5 -23.5l-27 -96h-319l26 96q40 3 53 23.5t4 46.5l-239 551l-176 -142l-109 -417q-5 -22 15 -40.5t59 -21.5l-27 -96h-350l25 96q39 3 71.5 23.5t38.5 42.5l279 1073q5 21 -16.5 39.5 t-61.5 21.5l25 97h350l-25 -97q-38 -3 -68.5 -23.5t-35.5 -41.5l-127 -479l585 467q27 20 34.5 37.5t-1.5 27.5t-28 12z" />
<glyph unicode="L" horiz-adv-x="962" d="M766 371l88 -21l-117 -350h-819l25 96q42 3 72 20.5t36 39.5l281 1077q5 22 -16.5 41t-61.5 22l25 97h354l-25 -97q-39 -3 -71 -23.5t-37 -41.5l-289 -1108h285q39 0 70 7.5t56 24.5t43 34.5t37 50t31.5 59t32.5 72.5z" />
<glyph unicode="M" horiz-adv-x="1513" d="M1675 1393l-26 -97q-40 -3 -73 -23.5t-36 -41.5l-278 -1071q-5 -23 16 -42t61 -22l-24 -96h-348l24 96q38 3 67 20t34 38l270 1044l-674 -1198h-170l-57 1204l-273 -1048q-6 -27 13.5 -42t60.5 -18l-24 -96h-320l25 96q93 7 108 58l281 1081q5 21 -16.5 39.5t-61.5 21.5 l25 97h339l64 -1141l651 1141h342z" />
<glyph unicode="N" horiz-adv-x="1218" d="M1380 1393l-26 -97q-38 -3 -71 -23.5t-38 -41.5l-319 -1231h-168l-322 1106l-246 -948q-5 -21 16.5 -40t59.5 -22l-26 -96h-322l25 96q34 3 68 21.5t40 38.5l281 1079q5 21 -16.5 39.5t-61.5 21.5l25 97h260l323 -1104l244 946q5 21 -15.5 39.5t-58.5 21.5l25 97h323z " />
<glyph unicode="O" horiz-adv-x="1269" d="M551 -33q-123 0 -215 43.5t-145 119t-77.5 179t-17.5 223t41 250.5q79 306 248.5 474.5t411.5 168.5q120 0 210.5 -41t145 -115t80 -175.5t19 -223t-41.5 -258.5q-77 -306 -247 -475.5t-412 -169.5zM535 102q104 -1 185.5 36.5t140.5 111t100.5 167.5t74.5 222 q57 218 36 362.5t-91.5 215.5t-177.5 73q-189 1 -308 -137t-186 -397q-49 -200 -34.5 -345t83.5 -226t177 -83z" />
<glyph unicode="P" horiz-adv-x="1038" d="M803 1393q104 0 180.5 -55t105.5 -153t-4 -233q-32 -123 -87.5 -212.5t-133 -143t-170.5 -79t-207 -25.5h-182l-84 -334q-6 -26 15 -42.5t63 -19.5l-27 -96h-354l25 96q40 3 71 21t37 39l281 1077q5 23 -16.5 41.5t-61.5 21.5l25 97h524zM913 981q38 149 -10.5 219 t-159.5 70h-235l-170 -656h113q105 0 183.5 24t132 73.5t88 114t58.5 155.5z" />
<glyph unicode="Q" horiz-adv-x="1288" d="M1210 612q-101 -399 -350 -557q21 -53 48.5 -70.5t66.5 -17.5q75 0 166 41l-21 -82q-99 -82 -213 -82q-73 0 -120 34.5t-82 107.5q-78 -19 -154 -19q-123 0 -215 43.5t-145 119t-77.5 179t-17.5 223t41 250.5q79 306 248.5 474.5t411.5 168.5q120 0 210.5 -41t145 -115 t80 -175.5t19 -223t-41.5 -258.5zM535 102q104 -1 185.5 36.5t140.5 111t100.5 167.5t74.5 222q57 218 36 362.5t-91.5 215.5t-177.5 73q-189 1 -308 -137t-186 -397q-49 -200 -34.5 -345t83.5 -226t177 -83z" />
<glyph unicode="R" horiz-adv-x="1114" d="M1120 956q-83 -323 -385 -391l121 -401q19 -62 82 -68l-23 -96h-192l-162 543q-20 -2 -61 -2h-181l-98 -381q-6 -28 13 -44.5t59 -19.5l-25 -96h-350l25 96q40 3 71 21t37 39l281 1077q5 23 -16.5 41.5t-61.5 21.5l25 97h563q163 0 245.5 -124t32.5 -313zM508 1270 l-158 -604h146q106 0 184 21.5t130.5 64t85 99t52.5 134.5q38 146 -12 215.5t-158 69.5h-270z" />
<glyph unicode="S" horiz-adv-x="1015" d="M121 311q1 -49 9 -82t30.5 -64.5t69.5 -47t120 -15.5q163 0 262.5 73t130.5 208q9 38 9.5 71t-5.5 57t-21 45t-30.5 35t-40 27.5t-45 22t-49.5 18.5q-144 52 -178 67q-140 65 -173 167q-25 76 3 180q20 74 59.5 134.5t87.5 100t105.5 67t113.5 39t111 11.5q99 0 164 -35 t80 -79l57 82h101l-62 -279l-129 -12q-9 86 -56 137t-155 51q-113 0 -196.5 -57.5t-112.5 -177.5q-7 -30 -8 -55t3.5 -44t16.5 -35.5t26 -28.5t37 -23.5t44 -20t53 -19.5q15 -5 44 -16q59 -21 88 -32.5t77 -35t71 -43.5t51 -54t36 -71.5t7.5 -90t-16.5 -115.5 q-36 -138 -117.5 -230t-189.5 -133t-244 -41q-124 0 -196.5 32.5t-85.5 80.5l-49 -80h-101l64 295z" />
<glyph unicode="T" horiz-adv-x="1136" d="M1272 1393l-64 -342l-98 -19q4 47 5.5 75t-2.5 63.5t-15 54t-34.5 32t-59.5 13.5h-164l-289 -1112q-5 -21 17 -40t61 -22l-25 -96h-356l26 96q41 3 72.5 21t34.5 39l291 1114h-166q-44 0 -79 -17.5t-62 -55t-44.5 -72t-41.5 -93.5l-91 19l113 342h971z" />
<glyph unicode="U" horiz-adv-x="1187" d="M1346 1393l-25 -97q-93 -7 -111 -63l-219 -850q-55 -214 -182.5 -315t-355.5 -101q-99 0 -170.5 23t-112 62.5t-59 95.5t-16 118t21.5 135l215 834q5 21 -17.5 39.5t-60.5 21.5l25 97h352l-27 -97q-89 -7 -104 -61l-224 -860q-11 -45 -15 -78.5t3.5 -72.5t31 -64 t74 -41.5t126.5 -16.5q135 0 228 66.5t128 208.5l221 860q6 21 -15.5 38.5t-58.5 20.5l25 97h322z" />
<glyph unicode="V" horiz-adv-x="1171" d="M1329 1393l-22 -97q-38 -3 -67.5 -23t-41.5 -44l-670 -1229h-186l-14 1235q0 22 -19.5 40t-56.5 21l24 97h326l-27 -97q-78 -3 -81 -51l8 -1038l559 1028q13 22 2.5 40t-47.5 21l20 97h293z" />
<glyph unicode="W" horiz-adv-x="1708" d="M1868 1393l-25 -97q-74 -5 -102 -63l-608 -1233h-187l10 952l-487 -952h-186l36 1235q0 56 -67 61l24 97h320l-25 -97q-38 -3 -62 -20.5t-24 -40.5l-34 -1018l514 1010q25 64 -45 69l24 97h289l-27 -97q-39 -3 -59.5 -20.5t-22.5 -42.5l-12 -1016l498 1020q10 22 -4 39 t-50 20l25 97h287z" />
<glyph unicode="X" horiz-adv-x="1101" d="M1124 1243l-446 -547l160 -538q21 -62 90 -62l-27 -96h-317l24 96q36 1 48.5 21.5t5.5 44.5l-119 403l-334 -405q-17 -22 -10 -42.5t41 -21.5l-25 -96h-297l27 96q60 0 110 54l447 544l-162 545q-7 24 -29.5 40.5t-58.5 16.5l27 97h317l-25 -97q-36 -1 -50 -19t-7 -42 l123 -408l336 406q17 23 10.5 42.5t-41.5 20.5l25 97h295l-25 -97q-64 0 -113 -53z" />
<glyph unicode="Y" horiz-adv-x="1116" d="M1278 1393l-27 -97q-58 0 -94 -45l-500 -671l-108 -422q-4 -20 21 -39.5t57 -22.5l-25 -96h-356l24 96q35 3 70 23.5t41 42.5l104 397l-155 676q-5 18 -11.5 29.5t-23.5 21.5t-43 10l27 97h323l-27 -97q-39 -1 -57.5 -22.5t-11.5 -46.5l115 -512l385 518q16 20 3 41 t-51 22l25 97h295z" />
<glyph unicode="Z" horiz-adv-x="991" d="M1120 1393l-33 -123l-942 -1147h412q36 0 67 13.5t53.5 33.5t44.5 54.5t37 65t34 75.5l86 -23l-113 -342h-852l33 123l944 1147h-338q-36 0 -66.5 -13.5t-52.5 -33.5t-43.5 -55t-35.5 -64.5t-33 -75.5l-89 23l113 342h774z" />
<glyph unicode="[" horiz-adv-x="468" d="M639 1434h-195l-421 -1624h196l-35 -123h-344l486 1869h344z" />
<glyph unicode="\" horiz-adv-x="1245" d="M422 1589l608 -1874h-151l-609 1874h152z" />
<glyph unicode="]" horiz-adv-x="471" d="M-131 -190h194l422 1624h-196l35 122h344l-486 -1869h-344z" />
<glyph unicode="^" horiz-adv-x="768" d="M813 950h-145l-82 369l-269 -369h-155l389 475h123z" />
<glyph unicode="_" horiz-adv-x="1058" d="M-98 -66h942l-35 -122h-940z" />
<glyph unicode="`" horiz-adv-x="479" d="M489 1516l123 -228h-123l-182 228h182z" />
<glyph unicode="a" d="M825 158q-9 -40 -1.5 -57t38.5 -17q34 0 70 12l-27 -94q-50 -35 -119 -35q-98 0 -120 74q-105 -74 -250 -74q-85 0 -152 25.5t-110 71.5t-70 108t-34 136.5t0.5 155.5t29.5 167q33 126 91 223.5t131 155.5t154 87t167 29q101 0 167 -43.5t87 -113.5l49 125h139zM676 193 q23 93 71 279.5t72 279.5q22 105 -38 171t-163 68q-143 1 -238 -106t-140 -281q-37 -150 -32.5 -260.5t62.5 -174.5t164 -65q69 -1 135 23.5t107 65.5z" />
<glyph unicode="b" horiz-adv-x="1046" d="M672 1126q125 0 211.5 -75.5t114 -213.5t-20.5 -333q-68 -262 -224.5 -399.5t-346.5 -137.5q-181 0 -250 117l-52 -84h-131q67 181 74 209l289 1126q5 22 -15.5 37.5t-60.5 16.5l23 90q99 0 200 77h68l-139 -548q100 118 260 118zM817 530q56 211 -0.5 336t-195.5 125 q-110 0 -181.5 -76t-103.5 -196l-131 -500q44 -117 192 -117q105 0 192 61t141.5 154.5t86.5 212.5z" />
<glyph unicode="c" horiz-adv-x="976" d="M416 -33q-81 0 -145 22t-104.5 59.5t-67.5 89.5t-38 107.5t-13 118.5t4.5 119t19.5 111q25 110 68.5 201.5t110.5 168t165 119.5t219 43q151 0 236 -81t63 -195q-12 -74 -59.5 -117.5t-98.5 -52.5q-52 -10 -96.5 15t-34.5 79q5 34 31.5 54.5t54 19t35.5 -22.5 q22 29 19 61t-20 58.5t-57.5 43t-93.5 13.5q-156 -6 -247 -120t-136 -312q-21 -97 -22 -178t19 -145.5t70.5 -101.5t127.5 -38q67 -3 126.5 18t102 57t71 72.5t46.5 74.5l115 -56q-19 -39 -41.5 -74.5t-64.5 -79.5t-90.5 -75.5t-120.5 -53.5t-154 -22z" />
<glyph unicode="d" d="M825 158q-9 -40 -1.5 -57t38.5 -17q40 0 70 12l-25 -94q-58 -35 -119 -35q-101 0 -120 74q-105 -74 -254 -74q-105 0 -187 47.5t-127 132t-55 200t27 251.5q67 259 207.5 393.5t353.5 134.5q99 0 160 -44.5t86 -108.5l92 360q3 23 -18.5 38t-61.5 15l20 93q48 0 99 23.5 t86 53.5h90zM231 571q-30 -126 -25 -214.5t41 -144.5t83 -81.5t102 -26.5q158 -4 248 91l141 555q26 108 -39 173.5t-168 67.5q-138 1 -233.5 -107t-149.5 -313z" />
<glyph unicode="e" horiz-adv-x="1009" d="M946 539l-723 2q-19 -89 -14.5 -169t28 -140t78 -95t134.5 -35q57 0 110 19.5t89 46.5t66 60.5t45 57.5t23 42l115 -56q-16 -33 -37.5 -66t-63.5 -78.5t-91.5 -79t-124 -57.5t-158.5 -24q-101 0 -177 34t-119 92.5t-64 138t-18.5 168t24.5 184.5q20 87 50 163t77.5 147 t107 121.5t141.5 80.5t177 30q113 0 192 -45.5t115 -124.5t42.5 -186t-24.5 -231zM610 1004q-133 0 -221 -96t-135 -253h553q8 44 9.5 88t-8 92t-31 84.5t-64.5 60.5t-103 24z" />
<glyph unicode="f" horiz-adv-x="653" d="M211 1094h90l55 213q15 54 34.5 95t51.5 79.5t82 59t115 20.5q51 0 89 -13t58 -33.5t31.5 -47t10 -54t-6.5 -53.5q-12 -43 -40 -68.5t-66 -25.5q-46 0 -66.5 29.5t-9.5 70.5q14 44 59 59q-10 29 -53 29q-53 0 -84.5 -33t-52.5 -104q-9 -32 -21 -88t-20 -95l-8 -40h184 l-29 -115h-186l-289 -1133q-15 -55 -32 -95.5t-45 -80t-69.5 -60t-96.5 -20.5q-44 0 -77.5 12t-51.5 32t-29 46t-9.5 52.5t5.5 52.5q11 42 40.5 68t69.5 26q44 0 63.5 -29.5t8.5 -68.5q-15 -48 -57 -62q4 -20 35 -20q30 0 51.5 32.5t40.5 102.5q6 20 12.5 53t9.5 55l4 23 l258 1014h-90z" />
<glyph unicode="g" horiz-adv-x="1042" d="M924 1094h139l-264 -1031q-61 -247 -175.5 -355.5t-289.5 -108.5q-266 0 -400 190l95 92q106 -149 299 -149q70 0 125 25t91 70.5t59 94.5t40 111q-103 -63 -229 -66q-100 -2 -174.5 33.5t-117 97.5t-62 147t-14.5 182.5t32 203.5q32 125 88 221t127 155t152 89t169 30 q107 0 172.5 -45.5t87.5 -117.5zM440 104q68 -1 130 20t102 58l145 566q15 103 -38.5 172.5t-160.5 70.5q-143 1 -238 -106t-140 -281q-61 -221 -8.5 -360t208.5 -140z" />
<glyph unicode="h" horiz-adv-x="1101" d="M975 680l-135 -522q-11 -40 -3.5 -57t37.5 -17q40 0 70 12l-24 -94q-57 -35 -119 -35q-79 0 -111 45.5t-12 130.5l137 525q26 103 27.5 175t-41.5 110t-137 38q-253 0 -345 -327l-169 -664h-158l344 1333q5 22 -16.5 38.5t-61.5 17.5l25 90q97 0 198 77h70l-154 -583 q134 153 318 153q176 0 247 -111.5t13 -334.5z" />
<glyph unicode="i" horiz-adv-x="471" d="M446 1460q55 0 81.5 -36.5t13.5 -84.5q-13 -42 -46 -68t-83 -26q-54 0 -79 36.5t-11 84.5q11 43 43 68.5t81 25.5zM434 1094l-241 -936q-9 -40 -3 -57t37 -17q34 0 70 12l-27 -94q-50 -35 -118 -35q-78 0 -109.5 46t-9.5 130l190 740q4 21 -16 33t-60 14l17 92 q38 0 75 16.5t91 55.5h104z" />
<glyph unicode="j" horiz-adv-x="493" d="M487 1460q55 0 81.5 -36.5t13.5 -84.5q-13 -42 -46 -68t-83 -26q-54 0 -79.5 37t-11.5 84q11 43 43.5 68.5t81.5 25.5zM375 1094h104l-323 -1262q-35 -127 -92.5 -184.5t-159.5 -57.5q-96 0 -140.5 58.5t-25.5 130.5q12 48 43 75t72 27q42 0 59.5 -30.5t7.5 -67.5 q-12 -46 -57 -64q6 -26 45 -26q31 0 55 22.5t33 63.5q7 27 13 71t9 58l250 975q6 21 -14.5 33t-60.5 14l14 92q39 0 75.5 16.5t92.5 55.5z" />
<glyph unicode="k" horiz-adv-x="1024" d="M932 1126q64 0 102.5 -31.5t34.5 -86.5q-3 -33 -27.5 -55.5t-66.5 -22.5q-44 0 -67.5 24t-18.5 58q-11 -7 -37 -48t-64 -97t-86.5 -115t-118.5 -113t-147 -80l287 -422q20 -27 39 -40t49 -13q31 0 55 12l-24 -94q-52 -35 -101 -35q-31 0 -55.5 9t-46.5 31.5t-35.5 41 t-38.5 55.5l-282 414l-136 -518h-155l346 1331q5 24 -16.5 40.5t-63.5 17.5l25 90q90 0 192 77h76l-240 -919q43 4 87 23t79.5 43.5t74.5 64.5t65.5 71.5t59 78t48 71.5t39.5 64q29 43 69 58t99 15z" />
<glyph unicode="l" horiz-adv-x="452" d="M190 158q-9 -40 -1.5 -57t38.5 -17q34 0 70 12l-27 -94q-50 -35 -118 -35q-78 0 -110.5 46t-10.5 130l307 1188q6 24 -15 40.5t-63 17.5l23 90q88 0 194 77h76z" />
<glyph unicode="m" horiz-adv-x="1591" d="M1477 723l-148 -565q-9 -40 -2.5 -57t35.5 -17q42 0 72 12l-25 -94q-57 -35 -119 -35q-80 0 -111.5 45.5t-9.5 130.5l152 586q19 82 15 140t-41 90t-109 32q-95 0 -169.5 -61.5t-101.5 -171.5l-196 -758h-156l191 729q63 262 -117 262q-211 0 -283 -213l-204 -778h-156 l227 885q9 44 -71 47l14 90q19 0 37.5 3.5t39.5 13.5t31 15.5t34.5 21t29.5 18.5h70l-7 -99q53 57 123 94t146 37q54 0 100 -13.5t85 -47.5t58 -86q50 67 139 107t181 40q50 0 93.5 -12.5t83.5 -41t61.5 -75t27 -114.5t-19.5 -160z" />
<glyph unicode="n" horiz-adv-x="1101" d="M987 723l-147 -565q-9 -40 -3 -57t35 -17q42 0 72 12l-24 -94q-57 -35 -119 -35q-80 0 -111.5 45.5t-9.5 130.5l147 566q35 157 3 219.5t-134 62.5q-69 0 -135.5 -23.5t-127 -82t-87.5 -142.5l-196 -743h-156l227 885q6 20 -12.5 33t-58.5 14l14 90q19 0 37.5 3.5 t39.5 13.5t31 15.5t34.5 21t29.5 18.5h70l-9 -119q68 63 162 107t186 44q149 0 221 -100.5t21 -302.5z" />
<glyph unicode="o" horiz-adv-x="1026" d="M416 -33q-100 0 -175 35.5t-117.5 96.5t-62 144t-14.5 177t31 196q61 242 199 376t341 134q99 0 172.5 -35.5t115.5 -96.5t61 -144t14 -177t-31 -196q-63 -244 -197.5 -377t-336.5 -133zM412 102q152 -1 237.5 98.5t138.5 303.5q26 96 30 182.5t-14 154.5t-65.5 108.5 t-120.5 41.5q-78 1 -139 -26t-106.5 -81t-78 -125t-58.5 -169q-25 -97 -28 -183.5t16 -154.5t67.5 -108.5t120.5 -41.5z" />
<glyph unicode="p" horiz-adv-x="1015" d="M653 1126q105 0 179.5 -50t108.5 -135.5t37.5 -199t-32.5 -241.5q-36 -138 -94 -242t-131.5 -166.5t-156.5 -93.5t-175 -31q-143 0 -223 99l-92 -355q-3 -23 19 -42.5t59 -20.5l-25 -99h-344l27 99q38 1 68 19.5t38 41.5l303 1168q6 23 -16 38t-62 17l25 90q32 0 65 12 t53 24.5t52 35.5h63l-4 -78q53 55 113 82.5t145 27.5zM786 522q10 43 17.5 82t11 87.5t0.5 89t-16.5 81t-38 68t-66.5 44.5t-98 17q-104 0 -161 -56t-89 -175l-145 -557q57 -101 196 -101q141 0 239.5 110t149.5 310z" />
<glyph unicode="q" horiz-adv-x="1034" d="M492 -451l120 476q-94 -58 -219 -58q-63 0 -121.5 22.5t-110 70t-82 121t-36.5 175.5t27 234q64 260 208 398t340 138q178 0 254 -143l58 111h137q-59 -149 -74 -205l-303 -1182q-3 -23 17.5 -40.5t58.5 -18.5l-25 -99h-249zM438 102q117 0 217 82l156 604 q17 100 -28 151.5t-142 51.5q-75 0 -138.5 -27.5t-106.5 -70t-78 -103t-55 -117.5t-36 -122q-38 -151 -13 -251t84 -149t140 -49z" />
<glyph unicode="r" horiz-adv-x="792" d="M684 1126q89 0 130.5 -64t19.5 -144q-15 -62 -54.5 -99t-93.5 -37q-44 0 -65.5 26.5t-12.5 68.5q8 35 31 55.5t59 19.5q-15 61 -98 46q-83 -16 -163 -86q-62 -55 -83 -113l-204 -799h-158l223 877q5 24 -14.5 39t-59.5 16l23 90q73 0 170 72h67l-10 -101 q69 62 147.5 97.5t145.5 35.5z" />
<glyph unicode="s" horiz-adv-x="849" d="M100 248q-5 -81 36.5 -117.5t144.5 -36.5q117 0 185 45t93 140q7 26 8.5 49t-0.5 40.5t-10.5 34.5t-16 28.5t-24 24.5t-27.5 20.5t-34 18.5t-35.5 16.5t-38.5 16.5q-142 60 -199 131.5t-32 180.5q31 134 133.5 210t261.5 76q155 0 207 -86l32 54h86l-49 -226l-114 -14 q-5 73 -42.5 109t-119.5 36q-98 0 -160 -47.5t-74 -122.5q-8 -50 22.5 -92t123.5 -82q126 -51 173 -84q120 -83 102 -236q-4 -27 -11 -56q-40 -158 -154.5 -235t-281.5 -77q-85 0 -139.5 20.5t-98.5 65.5l-29 -53h-86l50 233z" />
<glyph unicode="t" horiz-adv-x="573" d="M408 979l-201 -772q-17 -61 -4.5 -90t65.5 -29q18 0 40 4.5t36 9.5t34.5 12.5t22.5 8.5l-24 -105q-80 -51 -182 -51q-104 0 -140.5 54.5t-7.5 173.5l205 784h-98l28 115h17q33 0 62 16.5t50 40t41.5 61t33 67.5t28.5 73h92l-68 -258h183l-29 -115h-184z" />
<glyph unicode="u" horiz-adv-x="1060" d="M801 158q-10 -40 -2.5 -57t37.5 -17q39 0 69 12l-24 -94q-50 -35 -119 -35q-60 0 -93 27t-36 78q-128 -105 -287 -105q-74 0 -130 17.5t-88.5 49t-50.5 73.5t-16.5 91.5t13.5 104.5l145 567q5 21 -24.5 39.5t-53.5 20.5l23 92q77 0 166 72h104l-184 -713 q-23 -89 -23 -151t41.5 -95t128.5 -33q75 0 144 32t118 85l228 875h155z" />
<glyph unicode="v" horiz-adv-x="1005" d="M911 1010q43 -74 48 -182t-23.5 -223t-91 -230t-145.5 -205t-195.5 -146.5t-233.5 -56.5q-285 0 -200 340l161 625q3 24 -15.5 43t-57.5 22l24 97h248l-190 -738q-13 -51 -19.5 -86.5t-8 -69.5t6 -54t25.5 -32t47 -12q86 0 170 47.5t148.5 123t113 173.5t70.5 196.5 t13.5 194.5t-50.5 164q-1 -31 -24.5 -48t-63.5 -17q-33 2 -56.5 25.5t-19.5 70.5q6 47 49.5 71t103.5 21q64 -3 99 -29.5t67 -84.5z" />
<glyph unicode="w" horiz-adv-x="1492" d="M1393 1010q43 -72 50.5 -179t-17 -222t-82.5 -230.5t-136.5 -206.5t-188.5 -148t-231 -57q-163 0 -204 121q-121 -121 -305 -121q-149 0 -197.5 93t-9.5 247l159 621q3 24 -16 45t-57 24l24 97h250l-190 -738q-16 -61 -22 -103.5t-3 -79t23.5 -54t58.5 -17.5 q171 0 264 115l225 877h152l-199 -772q-53 -220 68 -220q83 0 163 47t141 123t105.5 174t64 196t9.5 194t-53 165q-1 -31 -24.5 -48t-61.5 -17q-34 2 -58 25.5t-20 70.5q7 48 51.5 72.5t108.5 19.5q58 -4 94 -30.5t64 -83.5z" />
<glyph unicode="x" horiz-adv-x="960" d="M870 1124q64 5 103.5 -24.5t38.5 -81.5q-1 -42 -27 -63t-63 -23q-45 -1 -68 21t-23 57q-22 -8 -47 -48.5t-50.5 -94.5t-80.5 -143.5t-123 -174.5l140 -412q14 -53 75 -53q24 0 60 12l-27 -94q-55 -35 -110 -35q-57 0 -90 31.5t-56 105.5l-110 324l-349 -428h-163l24 96 q64 0 99 43l346 416l-133 391q-16 51 -78 51l24 97h160l139 -410q50 63 95.5 139t77 136t51.5 83q60 79 165 82z" />
<glyph unicode="y" horiz-adv-x="1028" d="M952 791q-4 -99 -31 -217.5t-73.5 -243.5t-117 -240.5t-155 -206.5t-195.5 -145t-230 -53q-55 2 -117.5 19.5t-93.5 43.5l34 129q91 -61 197 -59q163 0 319 184l-245 936q-10 34 -26 46.5t-60 12.5l24 97h180l248 -957q69 110 120 240t73.5 248t14 218.5t-51.5 151.5 q0 -29 -23 -45.5t-61 -15.5q-46 4 -66 34.5t-12 67.5q10 48 54 70.5t98 17.5q101 -9 153.5 -107t42.5 -226z" />
<glyph unicode="z" horiz-adv-x="860" d="M893 1094l-27 -115l-704 -864h317q48 0 94.5 60.5t71.5 127.5l88 -18l-94 -285h-692l24 115l709 864h-256q-46 0 -92.5 -61t-73.5 -130l-88 19l94 287h629z" />
<glyph unicode="{" horiz-adv-x="526" d="M672 1556h49l-25 -90q-60 0 -99 -34t-60 -115l-119 -455q-38 -161 -135 -241q54 -81 12 -240l-119 -455q-38 -149 92 -149l-35 -90h-57q-98 0 -140.5 52.5t-8.5 186.5l118 455q23 98 4.5 140.5t-86.5 45.5l33 107q71 0 108.5 43t63.5 145l119 455q63 239 285 239z" />
<glyph unicode="|" horiz-adv-x="395" d="M412 1589h114l-493 -1902h-115z" />
<glyph unicode="}" horiz-adv-x="526" d="M-106 -313h-50l25 90q60 0 99.5 34t60.5 115l118 455q38 161 136 242q-55 82 -13 239l119 455q38 149 -92 149l35 90h57q98 0 141 -52.5t9 -186.5l-119 -455q-23 -98 -4.5 -140.5t86.5 -45.5l-33 -107q-71 0 -108.5 -43t-63.5 -145l-119 -455q-63 -239 -284 -239z" />
<glyph unicode="~" horiz-adv-x="1017" d="M68 547q0 113 83.5 177.5t206.5 45.5q61 -9 120.5 -39.5t99 -62t89 -57.5t93.5 -27q52 -3 75 24t23 88h131q0 -112 -77.5 -176.5t-213.5 -46.5q-60 8 -110.5 30t-84 47.5t-64 50t-65 41t-73.5 17.5q-55 1 -79.5 -25.5t-24.5 -86.5h-129z" />
<glyph unicode="&#xa1;" horiz-adv-x="487" d="M377 1110q56 0 83 -36.5t15 -88.5q-11 -44 -45 -71t-84 -27q-56 0 -84 35.5t-16 87.5q11 44 46.5 72t84.5 28zM104 -332h-178l334 1125h92z" />
<glyph unicode="&#xa2;" horiz-adv-x="923" d="M752 1393l-50 -191q114 -19 174.5 -84t43.5 -157q-12 -59 -52 -103t-96 -57q-59 -12 -97.5 15t-31.5 77q4 30 28 50.5t49.5 22t43.5 -9.5q26 50 -24.5 91.5t-151.5 35.5q-62 -2 -115.5 -33.5t-93.5 -86t-69 -121.5t-50 -148q-49 -198 -8 -292t160 -97q57 -2 109.5 17.5 t91 52t65 66.5t41.5 67l121 -57q-17 -35 -40 -69t-60 -71.5t-79.5 -66.5t-102 -50t-124.5 -26l-43 -168h-129l47 174q-79 14 -131.5 57t-75 99t-28 127.5t2.5 134.5t25 127q19 72 47 137.5t69.5 127.5t92.5 108.5t119 77.5t145 38l48 185h129z" />
<glyph unicode="&#xa3;" horiz-adv-x="917" d="M700 1425q104 0 177 -46.5t118 -161.5l-141 -74q-8 26 -11.5 37.5t-17.5 37t-30 38t-45.5 23.5t-67.5 11q-111 0 -189 -81.5t-90 -207.5q-2 -59 -0.5 -86t8.5 -81t9 -82h282l-26 -115h-264q-28 -124 -76.5 -236t-140.5 -278h284q85 1 139.5 57.5t100.5 171.5l84 -22 l-109 -330h-774l23 96q37 3 64.5 21t41.5 41q159 282 201 479h-141l34 115h115q-1 21 -8 78t-7 86.5t7 105.5q15 104 56.5 183t103 126t134 70.5t156.5 23.5z" />
<glyph unicode="&#xa4;" horiz-adv-x="1052" d="M1112 999l-164 -133q36 -68 42.5 -152t-17.5 -161q-33 -123 -131 -215l73 -96l-108 -88l-78 100q-122 -64 -256 -64q-158 0 -260 95l-164 -131l-69 88l165 135q-36 68 -43 151t17 160q37 127 131 215l-74 96l111 88l75 -100q122 64 259 64q160 0 260 -93l161 129z M805 551q16 44 19 89.5t-9 87.5t-36.5 76t-67 56t-97.5 25q-106 8 -197.5 -44t-133.5 -151q-16 -43 -19 -89.5t9.5 -88.5t38 -76.5t68 -56t97.5 -23.5q103 -9 195.5 43.5t132.5 151.5z" />
<glyph unicode="&#xa5;" horiz-adv-x="1116" d="M983 1393h295l-27 -97q-58 0 -94 -45l-369 -495h117l-28 -115h-175l-45 -61l-8 -33h203l-29 -115h-205l-69 -274q-4 -20 21 -39.5t57 -22.5l-25 -96h-356l24 96q35 3 70 23.5t41 42.5l72 270h-213l28 115h213l4 12l-18 82h-174l29 115h118l-110 479q-5 18 -11.5 29.5 t-23.5 21.5t-43 10l27 97h323l-27 -97q-39 -1 -57.5 -22.5t-11.5 -46.5l106 -471h39l355 477q16 20 3 41t-51 22z" />
<glyph unicode="&#xa6;" horiz-adv-x="395" d="M410 1589h114l-219 -841h-115zM137 528h115l-219 -841h-115z" />
<glyph unicode="&#xa7;" horiz-adv-x="864" d="M625 1298q-98 0 -157.5 -44t-78.5 -109q-8 -26 -8.5 -48.5t4.5 -40.5t18 -34.5t27.5 -29t37.5 -26t43 -23.5t50 -23q45 -16 76.5 -29t65 -31.5t54.5 -36.5t39 -43t24.5 -54t5.5 -66t-13 -82q-28 -106 -90.5 -189t-149.5 -115q127 -93 82 -268q-36 -131 -141.5 -204.5 t-271.5 -73.5q-120 0 -200 54.5t-126 135.5l117 78q77 -139 217 -139q97 0 158.5 45t80.5 112q26 86 -18 137.5t-147 90.5q-44 16 -77.5 30.5t-66 33.5t-54.5 38.5t-39 45t-24.5 54.5t-6.5 65t12 79q27 107 90.5 187.5t154.5 113.5q-135 99 -86 270q32 120 135.5 193 t268.5 73q212 0 325 -186l-114 -72q-69 131 -217 131zM649 571q29 83 -9.5 134.5t-129.5 85.5q-60 15 -105.5 6t-81 -44.5t-57.5 -76t-35 -88.5q-51 -175 146 -219q193 -35 272 202z" />
<glyph unicode="&#xa8;" horiz-adv-x="501" d="M346 1309q-39 0 -57.5 26t-9.5 62q7 29 30 46t53 17q38 0 57.5 -26t10.5 -62q-9 -28 -33 -45.5t-51 -17.5zM571 1309q-38 0 -57 26t-10 62q7 28 31 45.5t53 17.5q38 0 57 -26t10 -62q-9 -28 -33 -45.5t-51 -17.5z" />
<glyph unicode="&#xa9;" horiz-adv-x="1519" d="M799 -33q-302 0 -486 201t-184 528t184 528t486 201q199 0 351.5 -91t235 -256.5t82.5 -381.5t-82.5 -381.5t-235 -256.5t-351.5 -91zM799 86q245 0 388.5 158.5t143.5 451.5t-143.5 452t-388.5 159t-390 -159t-145 -452t145 -451.5t390 -158.5zM803 227q-67 0 -123 17 t-95 45t-69 67.5t-47.5 80.5t-29 87.5t-15.5 85.5t-4 78q0 90 21 170t65 149.5t123 110.5t184 41q126 0 215.5 -63.5t95.5 -161.5q5 -57 -24 -101t-80 -57q-48 -11 -85.5 8t-43.5 58q-4 32 16 56.5t44.5 27t43.5 -12.5q10 47 -44 91t-142 43q-124 -4 -185 -97t-61 -264 q0 -338 238 -338q51 0 91 15t62.5 35.5t39 52t22.5 52t12 48.5l129 -21q-29 -149 -119 -226t-235 -77z" />
<glyph unicode="&#xaa;" horiz-adv-x="763" d="M711 834q-9 -43 14 -43q11 0 47 12l-16 -70q-39 -28 -88 -28q-68 0 -86 40q-65 -49 -162 -49q-81 0 -135 34.5t-77 93.5t-23 132.5t22 157.5q40 153 132.5 232t217.5 79q121 0 162 -90l26 60h111zM336 1098q-38 -141 -7.5 -223t122.5 -82q79 -3 133 41l102 395 q-7 46 -40.5 73t-80.5 29q-92 1 -145 -60.5t-84 -172.5zM178 498l31 123h444l-30 -123h-445z" />
<glyph unicode="&#xab;" horiz-adv-x="894" d="M590 991l-352 -370l149 -373h-151l-160 373l340 370h174zM946 991l-352 -370l149 -373h-151l-160 373l340 370h174z" />
<glyph unicode="&#xac;" horiz-adv-x="993" d="M94 682h799v-301h-135v178h-664v123z" />
<glyph unicode="&#xad;" horiz-adv-x="622" d="M94 680h508l-33 -123h-506z" />
<glyph unicode="&#xae;" horiz-adv-x="1175" d="M692 1448q136 0 252.5 -61.5t188 -176.5t71.5 -258q0 -144 -71.5 -258.5t-188 -175.5t-252.5 -61q-137 0 -253.5 61t-187.5 175.5t-71 258.5q0 143 71 258t187.5 176.5t253.5 61.5zM692 555q109 0 198 44.5t144.5 136t55.5 216.5q0 187 -115 293.5t-283 106.5 q-111 0 -200 -45t-144 -137t-55 -218q0 -186 114 -291.5t285 -105.5zM926 1071q0 -134 -115 -178l72 -129q7 -15 24.5 -28.5t38.5 -14.5v-64h-125l-119 213q-50 -4 -77 -4v-104q0 -13 17 -26.5t40 -14.5v-64h-219v64q22 1 39.5 14.5t17.5 26.5v389q0 14 -17.5 28t-39.5 15 v63h219q134 0 189 -41t55 -145zM811 1071q0 71 -31.5 89t-142.5 18h-12v-232h10q103 3 139.5 29t36.5 96z" />
<glyph unicode="&#xaf;" horiz-adv-x="471" d="M289 1444h356l-31 -119h-354z" />
<glyph unicode="&#xb0;" horiz-adv-x="514" d="M467 1167q-80 0 -136.5 53t-56.5 134q0 84 56 136t137 52q80 0 136 -52t56 -136q0 -82 -56 -134.5t-136 -52.5zM465 1253q44 0 72 27t28 72q0 48 -28 76t-72 28q-43 0 -70.5 -28t-27.5 -76q0 -45 28 -72t70 -27z" />
<glyph unicode="&#xb1;" horiz-adv-x="1060" d="M403 283v292h-307v123h307v293h132v-293h307v-123h-307v-292h-132zM115 123h745v-123h-745v123z" />
<glyph unicode="&#xb2;" horiz-adv-x="712" d="M594 1573q65 0 114 -14t76.5 -37.5t44 -55t15.5 -66.5t-8 -71q-21 -83 -95.5 -149.5t-216.5 -137.5q-6 -3 -47 -22.5t-51 -25t-42.5 -23.5t-45 -29t-33 -29.5t-32 -37.5t-19.5 -41q14 16 49 16q44 0 105 -27.5t100 -27.5q66 0 97 27t57 89l98 -28q-34 -104 -95.5 -146.5 t-160.5 -42.5q-57 0 -98.5 16t-68.5 32t-50 16q-31 0 -54 -27l-10 -20h-90q-17 62 -4 116q18 72 84 142.5t178 124.5q163 81 229 132.5t87 123.5q17 64 -18 96.5t-116 32.5q-89 0 -139.5 -35.5t-46.5 -67.5q32 28 63 11.5t21 -60.5q-15 -53 -90 -53q-45 0 -70 22.5t-26.5 53 t4.5 61.5q21 80 105.5 121t199.5 41z" />
<glyph unicode="&#xb3;" horiz-adv-x="710" d="M467 1196q57 1 100.5 16.5t68.5 41t38 49t20 49.5q17 69 -15 98t-108 29q-144 0 -176 -95q17 16 40.5 17.5t40.5 -19t9 -51.5q-14 -59 -92 -59q-63 0 -88.5 43.5t-7.5 103.5q12 42 42 73t72 48t86.5 25t92.5 8q129 0 193.5 -64.5t35.5 -177.5q-34 -129 -162 -182 q133 -72 91 -234q-25 -101 -110 -161t-239 -60q-139 0 -210 53.5t-46 143.5q13 53 52.5 80.5t93.5 27.5q51 0 70.5 -25.5t9.5 -58.5q-7 -28 -31.5 -42t-48 -11t-29.5 19q-13 -50 21.5 -71.5t105.5 -21.5q197 0 234 152q40 165 -172 172z" />
<glyph unicode="&#xb4;" horiz-adv-x="362" d="M373 1516h182l-182 -228h-123z" />
<glyph unicode="&#xb5;" horiz-adv-x="1067" d="M987 932l-199 -774q-10 -40 -2.5 -57t37.5 -17q40 0 70 12l-25 -94q-50 -35 -118 -35q-118 0 -127 96q-153 -93 -295 -96q-96 0 -156 51l-121 -464h-155l340 1320q5 22 -16.5 38.5t-61.5 17.5l24 92q72 0 166 72h105l-197 -748q-34 -128 -9.5 -186t118.5 -58 q55 0 132.5 23.5t143.5 73.5l231 895h172q-36 -81 -57 -162z" />
<glyph unicode="&#xb6;" horiz-adv-x="894" d="M598 1393h145l-442 -1706h-149l225 860q-84 1 -144.5 56.5t-83.5 161t15 259.5q93 369 434 369zM889 1393h149l-442 -1706h-150z" />
<glyph unicode="&#xb7;" horiz-adv-x="339" d="M193 518q-51 0 -76 32.5t-13 82.5q9 39 40 62.5t73 23.5q53 0 77 -33t13 -78q-9 -41 -40 -65.5t-74 -24.5z" />
<glyph unicode="&#xb8;" horiz-adv-x="401" d="M-135 -307q6 0 15.5 0.5t34.5 7.5t45.5 18t41 36t29.5 59q10 47 -23 47q-20 0 -37 -7t-24.5 -12t-21.5 1.5t-36 29.5l138 184h69l-119 -145q24 12 56 12q66 0 98.5 -34.5t13.5 -104.5q-19 -74 -83 -118t-134 -44q-51 0 -92 25z" />
<glyph unicode="&#xb9;" horiz-adv-x="374" d="M326 831q-3 -18 10.5 -32t40.5 -15l-19 -73h-249l18 73q29 1 51 20.5t31 41.5l135 532q3 20 -9.5 28.5t-41.5 10.5l10 76q75 0 148 63h61z" />
<glyph unicode="&#xba;" horiz-adv-x="724" d="M438 696q-83 0 -140 32.5t-82 87t-30.5 127t15.5 153.5q34 146 121 237.5t229 91.5q158 0 219 -112t21 -287q-15 -70 -42.5 -127.5t-69.5 -104t-103.5 -72.5t-137.5 -26zM444 791q79 0 135 59.5t87 200.5q62 280 -119 280q-78 0 -133.5 -59.5t-85.5 -200.5 q-64 -280 116 -280zM170 621h422l-31 -123h-422z" />
<glyph unicode="&#xbb;" horiz-adv-x="890" d="M-18 248l352 370l-150 373h152l160 -373l-340 -370h-174zM338 248l352 370l-149 373h151l160 -373l-340 -370h-174z" />
<glyph unicode="&#xbc;" horiz-adv-x="1302" d="M1194 1393h141l-1251 -1393h-141zM283 668q-3 -18 10.5 -32t40.5 -15l-19 -74h-249l18 74q29 1 51 20t31 41l135 532q3 20 -9.5 28.5t-41.5 10.5l10 76q74 0 148 64h61zM1155 209h-104l-25 -90q-4 -42 45 -45l-18 -74h-238l19 74q28 1 47 19.5t26 39.5l19 74h-353l25 102 l455 537h159l-137 -537h109zM731 309h223l95 373z" />
<glyph unicode="&#xbd;" horiz-adv-x="1490" d="M1194 1393h141l-1251 -1393h-141zM283 668q-3 -18 10.5 -32t40.5 -15l-19 -74h-249l18 74q29 1 51 20t31 41l135 532q3 20 -9.5 28.5t-41.5 10.5l10 76q74 0 148 64h61zM1169 862q65 0 114 -14t76.5 -37.5t44 -55t15.5 -66.5t-8 -71q-21 -82 -95 -148.5t-216 -137.5 q-9 -4 -41.5 -20t-44 -21.5t-39.5 -20.5t-40 -24t-33 -24.5t-32 -29t-22.5 -32t-18.5 -37.5q14 16 50 16q44 0 104.5 -27.5t99.5 -27.5q65 0 96.5 27.5t57.5 89.5l98 -29q-34 -104 -95.5 -146t-160.5 -42q-57 0 -98 15.5t-68.5 31.5t-50.5 16q-30 0 -53 -27l-10 -20h-90 q-17 63 -4 117q18 72 84 142t178 124q162 81 228 132.5t87 123.5q17 64 -17.5 96.5t-115.5 32.5q-89 0 -139.5 -35t-46.5 -67q32 28 63 11t21 -61q-15 -53 -91 -53q-45 0 -70 22.5t-26.5 53t4.5 61.5q21 80 105.5 121t199.5 41z" />
<glyph unicode="&#xbe;" horiz-adv-x="1564" d="M424 1032q57 1 100.5 16.5t68.5 41t38 49t20 49.5q17 69 -15 98t-108 29q-144 0 -176 -94q11 13 29 16t34 -4t24.5 -25t2.5 -41q-14 -59 -92 -59q-63 0 -88.5 43.5t-7.5 103.5q12 42 42 73t72 48t86.5 25t92.5 8q129 0 193.5 -64.5t35.5 -177.5q-34 -129 -162 -182 q133 -72 91 -233q-25 -101 -110 -161.5t-239 -60.5q-139 0 -210 53.5t-46 143.5q13 53 53 81t93 28q51 0 70.5 -25.5t9.5 -58.5q-7 -28 -31.5 -42.5t-48 -11.5t-29.5 19q-13 -50 21.5 -71t105.5 -21q197 0 234 151q40 165 -172 172zM1466 1393h142l-1252 -1393h-141z M1417 209h-104l-25 -90q-4 -42 45 -45l-18 -74h-238l19 74q28 1 47 19.5t26 39.5l19 74h-352l24 102l455 537h160l-138 -537h109zM993 309h224l94 373z" />
<glyph unicode="&#xbf;" horiz-adv-x="972" d="M686 1112q57 0 83.5 -36t14.5 -89q-11 -44 -45 -71t-82 -27q-58 0 -86 35.5t-16 87.5q11 44 46.5 72t84.5 28zM696 788q18 -30 25.5 -65t2.5 -77t-39 -88t-95 -85q-23 -16 -94 -59t-119.5 -76.5t-108 -82.5t-98.5 -105.5t-53 -116.5q-26 -106 34 -172t201 -66 q76 0 136.5 20t94 50t49.5 62.5t13 60.5q-15 -16 -38 -18t-42.5 7t-30.5 30.5t-4 49.5q10 33 40.5 54.5t78.5 21.5q75 0 113.5 -53t15.5 -137q-33 -125 -164 -199t-297 -74q-200 0 -305.5 109.5t-54.5 292.5q17 64 52 122.5t70.5 98t88.5 80t85.5 61t80.5 47.5q37 23 60 38 t50.5 33t43 30t34 27.5t27.5 26.5t19.5 26t14.5 27.5t7 29t2.5 33t-2.5 36.5h106z" />
<glyph unicode="&#xc0;" horiz-adv-x="1243" d="M860 1731l123 -228h-123l-182 228h182zM995 152q1 -25 22 -39.5t52 -16.5l-25 -96h-358l25 96q43 2 73.5 16.5t30.5 37.5l-10 245h-465l-135 -243q-13 -26 8 -40t57 -16l-26 -96h-326l25 96q75 7 110 60l705 1237h178zM403 512h398l-25 676z" />
<glyph unicode="&#xc1;" horiz-adv-x="1243" d="M918 1731h182l-182 -228h-123zM995 152q1 -25 22 -39.5t52 -16.5l-25 -96h-358l25 96q43 2 73.5 16.5t30.5 37.5l-10 245h-465l-135 -243q-13 -26 8 -40t57 -16l-26 -96h-326l25 96q75 7 110 60l705 1237h178zM403 512h398l-25 676z" />
<glyph unicode="&#xc2;" horiz-adv-x="1243" d="M1079 1511h-125l-49 107l-102 -107h-135l168 177h165zM995 152q1 -25 22 -39.5t52 -16.5l-25 -96h-358l25 96q43 2 73.5 16.5t30.5 37.5l-10 245h-465l-135 -243q-13 -26 8 -40t57 -16l-26 -96h-326l25 96q75 7 110 60l705 1237h178zM403 512h398l-25 676z" />
<glyph unicode="&#xc3;" horiz-adv-x="1243" d="M674 1546q8 28 18 49.5t28 44.5t47.5 35.5t68.5 12.5q41 0 68 -13.5t36.5 -29.5t17 -32.5t11.5 -19.5q15 -10 36 10t21 52h100q-33 -144 -163 -144q-43 0 -71.5 12t-37.5 25.5t-16.5 30.5t-10.5 20q-9 5 -20.5 2.5t-21.5 -18.5t-11 -37h-100zM995 152q1 -25 22 -39.5 t52 -16.5l-25 -96h-358l25 96q43 2 73.5 16.5t30.5 37.5l-10 245h-465l-135 -243q-13 -26 8 -40t57 -16l-26 -96h-326l25 96q75 7 110 60l705 1237h178zM403 512h398l-25 676z" />
<glyph unicode="&#xc4;" horiz-adv-x="1243" d="M776 1524q-39 0 -57.5 26t-9.5 62q7 29 30.5 46t53.5 17q38 0 57 -26t10 -62q-9 -28 -33 -45.5t-51 -17.5zM1001 1524q-38 0 -57 26t-10 62q7 28 31 45.5t53 17.5q38 0 57 -26t10 -62q-9 -28 -33 -45.5t-51 -17.5zM995 152q1 -25 22 -39.5t52 -16.5l-25 -96h-358l25 96 q43 2 73.5 16.5t30.5 37.5l-10 245h-465l-135 -243q-13 -26 8 -40t57 -16l-26 -96h-326l25 96q75 7 110 60l705 1237h178zM403 512h398l-25 676z" />
<glyph unicode="&#xc5;" horiz-adv-x="1243" d="M883 1499q-61 0 -87.5 41.5t-13.5 97.5q13 48 52 75.5t86 27.5q62 0 88.5 -45t13.5 -99q-12 -44 -50.5 -71t-88.5 -27zM893 1569q23 0 38.5 13t18.5 30q7 22 -4 41.5t-37 19.5q-41 0 -57 -47q-5 -22 5.5 -39.5t35.5 -17.5zM995 152q1 -25 22 -39.5t52 -16.5l-25 -96h-358 l25 96q43 2 73.5 16.5t30.5 37.5l-10 245h-465l-135 -243q-13 -26 8 -40t57 -16l-26 -96h-326l25 96q75 7 110 60l705 1237h178zM403 512h398l-25 676z" />
<glyph unicode="&#xc6;" horiz-adv-x="1697" d="M1769 1051l-96 -11q7 72 5.5 122.5t-29.5 78.5t-88 29h-328l-127 -498h184q41 0 76.5 34.5t52.5 96.5l88 -6l-96 -371l-88 6q32 119 -55 119h-195l-137 -528h317q88 1 143 63t101 183l88 -27l-112 -342h-730l103 395h-426l-207 -248q-14 -19 -5 -34.5t42 -16.5l-21 -96 h-327l20 96q31 3 67 21.5t58 42.5l1014 1233h772zM512 512h362l168 649z" />
<glyph unicode="&#xc7;" horiz-adv-x="1214" d="M793 1290q-173 1 -294.5 -135t-189.5 -399q-37 -142 -39 -261.5t28.5 -206t97 -136t163.5 -50.5q137 -1 247 83.5t165 215.5l157 -24q-91 -200 -240.5 -305t-330.5 -105q-41 0 -61 2l-47 -57q24 12 55 12q66 0 98.5 -34.5t13.5 -104.5q-19 -74 -83 -118t-134 -44 q-51 0 -92 25l29 45q6 0 15.5 0.5t34.5 7.5t45.5 18t41 36t29.5 59q10 47 -23 47q-20 0 -37 -7t-24.5 -12t-21.5 1.5t-36 29.5l78 107q-150 30 -238 140.5t-103 278t38 383.5q85 320 259 481.5t403 161.5q214 0 327 -137l47 105h117l-76 -334l-153 -25q-38 253 -266 256z " />
<glyph unicode="&#xc8;" horiz-adv-x="1042" d="M758 1731l123 -228h-123l-183 228h183zM1114 1051l-98 -15q7 72 5 123.5t-30.5 80.5t-87.5 30h-395l-127 -498h260q41 0 73.5 31.5t49.5 93.5h90l-96 -371h-90q17 62 -0.5 93.5t-59.5 31.5h-260l-137 -528h389q88 1 141 59.5t101 179.5l88 -20l-113 -342h-899l25 96 q39 3 71.5 23.5t38.5 42.5l279 1073q5 21 -17.5 39.5t-60.5 21.5l25 97h899z" />
<glyph unicode="&#xc9;" horiz-adv-x="1042" d="M815 1731h182l-182 -228h-123zM1114 1051l-98 -15q7 72 5 123.5t-30.5 80.5t-87.5 30h-395l-127 -498h260q41 0 73.5 31.5t49.5 93.5h90l-96 -371h-90q17 62 -0.5 93.5t-59.5 31.5h-260l-137 -528h389q88 1 141 59.5t101 179.5l88 -20l-113 -342h-899l25 96 q39 3 71.5 23.5t38.5 42.5l279 1073q5 21 -17.5 39.5t-60.5 21.5l25 97h899z" />
<glyph unicode="&#xca;" horiz-adv-x="1042" d="M977 1511h-125l-49 107l-103 -107h-135l168 177h166zM1114 1051l-98 -15q7 72 5 123.5t-30.5 80.5t-87.5 30h-395l-127 -498h260q41 0 73.5 31.5t49.5 93.5h90l-96 -371h-90q17 62 -0.5 93.5t-59.5 31.5h-260l-137 -528h389q88 1 141 59.5t101 179.5l88 -20l-113 -342 h-899l25 96q39 3 71.5 23.5t38.5 42.5l279 1073q5 21 -17.5 39.5t-60.5 21.5l25 97h899z" />
<glyph unicode="&#xcb;" horiz-adv-x="1042" d="M674 1524q-39 0 -58 26t-10 62q7 29 30.5 46t53.5 17q38 0 57.5 -26t10.5 -62q-9 -28 -33 -45.5t-51 -17.5zM899 1524q-38 0 -57.5 26t-10.5 62q7 28 31 45.5t53 17.5q38 0 57.5 -26t10.5 -62q-9 -28 -33 -45.5t-51 -17.5zM1114 1051l-98 -15q7 72 5 123.5t-30.5 80.5 t-87.5 30h-395l-127 -498h260q41 0 73.5 31.5t49.5 93.5h90l-96 -371h-90q17 62 -0.5 93.5t-59.5 31.5h-260l-137 -528h389q88 1 141 59.5t101 179.5l88 -20l-113 -342h-899l25 96q39 3 71.5 23.5t38.5 42.5l279 1073q5 21 -17.5 39.5t-60.5 21.5l25 97h899z" />
<glyph unicode="&#xcc;" horiz-adv-x="509" d="M506 1731l123 -228h-123l-182 228h182zM653 1393l-24 -97q-39 -3 -73 -21t-40 -38l-278 -1077q-6 -22 18 -41.5t63 -22.5l-26 -96h-359l25 96q39 3 72 23.5t39 42.5l276 1073q6 21 -16 39.5t-62 21.5l27 97h358z" />
<glyph unicode="&#xcd;" horiz-adv-x="509" d="M563 1731h182l-182 -228h-123zM653 1393l-24 -97q-39 -3 -73 -21t-40 -38l-278 -1077q-6 -22 18 -41.5t63 -22.5l-26 -96h-359l25 96q39 3 72 23.5t39 42.5l276 1073q6 21 -16 39.5t-62 21.5l27 97h358z" />
<glyph unicode="&#xce;" horiz-adv-x="509" d="M725 1511h-125l-49 107l-102 -107h-136l168 177h166zM653 1393l-24 -97q-39 -3 -73 -21t-40 -38l-278 -1077q-6 -22 18 -41.5t63 -22.5l-26 -96h-359l25 96q39 3 72 23.5t39 42.5l276 1073q6 21 -16 39.5t-62 21.5l27 97h358z" />
<glyph unicode="&#xcf;" horiz-adv-x="509" d="M422 1524q-39 0 -58 26t-10 62q7 29 30.5 46t53.5 17q38 0 57.5 -26t10.5 -62q-9 -28 -33 -45.5t-51 -17.5zM647 1524q-38 0 -57 26t-10 62q7 28 31 45.5t53 17.5q38 0 57 -26t10 -62q-9 -28 -33 -45.5t-51 -17.5zM653 1393l-24 -97q-39 -3 -73 -21t-40 -38l-278 -1077 q-6 -22 18 -41.5t63 -22.5l-26 -96h-359l25 96q39 3 72 23.5t39 42.5l276 1073q6 21 -16 39.5t-62 21.5l27 97h358z" />
<glyph unicode="&#xd0;" horiz-adv-x="1173" d="M762 1393q125 0 214 -56.5t132.5 -158.5t48.5 -244t-39 -313q-80 -325 -260 -473t-452 -148h-488l25 96q41 3 73 23.5t37 42.5l123 475h-86l31 119h86l123 477q5 21 -17 40.5t-59 22.5l25 97h483zM944 645q18 78 27 148.5t9.5 143t-16 131t-47.5 105t-87 72t-132 25.5 h-190l-133 -514h297l-31 -119h-297l-133 -514h207q405 0 526 522z" />
<glyph unicode="&#xd1;" horiz-adv-x="1218" d="M676 1546q8 28 18 49.5t28 44.5t47.5 35.5t68.5 12.5q41 0 68 -13.5t36.5 -29.5t17 -32.5t11.5 -19.5q15 -10 36 10t21 52h100q-33 -144 -163 -144q-43 0 -71.5 12t-37.5 25.5t-16.5 30.5t-10.5 20q-9 5 -20.5 2.5t-21.5 -18.5t-11 -37h-100zM1380 1393l-26 -97 q-38 -3 -71 -23.5t-38 -41.5l-319 -1231h-168l-322 1106l-246 -948q-5 -21 16.5 -40t59.5 -22l-26 -96h-322l25 96q34 3 68 21.5t40 38.5l281 1079q5 21 -16.5 39.5t-61.5 21.5l25 97h260l323 -1104l244 946q5 21 -15.5 39.5t-58.5 21.5l25 97h323z" />
<glyph unicode="&#xd2;" horiz-adv-x="1269" d="M856 1731l123 -228h-123l-182 228h182zM551 -33q-123 0 -215 43.5t-145 119t-77.5 179t-17.5 223t41 250.5q79 306 248.5 474.5t411.5 168.5q120 0 210.5 -41t145 -115t80 -175.5t19 -223t-41.5 -258.5q-77 -306 -247 -475.5t-412 -169.5zM535 102q104 -1 185.5 36.5 t140.5 111t100.5 167.5t74.5 222q57 218 36 362.5t-91.5 215.5t-177.5 73q-189 1 -308 -137t-186 -397q-49 -200 -34.5 -345t83.5 -226t177 -83z" />
<glyph unicode="&#xd3;" horiz-adv-x="1269" d="M913 1731h183l-183 -228h-122zM551 -33q-123 0 -215 43.5t-145 119t-77.5 179t-17.5 223t41 250.5q79 306 248.5 474.5t411.5 168.5q120 0 210.5 -41t145 -115t80 -175.5t19 -223t-41.5 -258.5q-77 -306 -247 -475.5t-412 -169.5zM535 102q104 -1 185.5 36.5t140.5 111 t100.5 167.5t74.5 222q57 218 36 362.5t-91.5 215.5t-177.5 73q-189 1 -308 -137t-186 -397q-49 -200 -34.5 -345t83.5 -226t177 -83z" />
<glyph unicode="&#xd4;" horiz-adv-x="1269" d="M1075 1511h-125l-49 107l-102 -107h-135l167 177h166zM551 -33q-123 0 -215 43.5t-145 119t-77.5 179t-17.5 223t41 250.5q79 306 248.5 474.5t411.5 168.5q120 0 210.5 -41t145 -115t80 -175.5t19 -223t-41.5 -258.5q-77 -306 -247 -475.5t-412 -169.5zM535 102 q104 -1 185.5 36.5t140.5 111t100.5 167.5t74.5 222q57 218 36 362.5t-91.5 215.5t-177.5 73q-189 1 -308 -137t-186 -397q-49 -200 -34.5 -345t83.5 -226t177 -83z" />
<glyph unicode="&#xd5;" horiz-adv-x="1269" d="M670 1546q8 28 18 49.5t28 44.5t47 35.5t68 12.5q53 0 81 -20.5t39 -46.5t14 -28q15 -10 36 10t21 52h100q-33 -144 -164 -144q-43 0 -71.5 12t-37 25.5t-16 30.5t-10.5 20q-9 5 -20.5 2.5t-21.5 -18.5t-11 -37h-100zM551 -33q-123 0 -215 43.5t-145 119t-77.5 179 t-17.5 223t41 250.5q79 306 248.5 474.5t411.5 168.5q120 0 210.5 -41t145 -115t80 -175.5t19 -223t-41.5 -258.5q-77 -306 -247 -475.5t-412 -169.5zM535 102q104 -1 185.5 36.5t140.5 111t100.5 167.5t74.5 222q57 218 36 362.5t-91.5 215.5t-177.5 73q-189 1 -308 -137 t-186 -397q-49 -200 -34.5 -345t83.5 -226t177 -83z" />
<glyph unicode="&#xd6;" horiz-adv-x="1269" d="M772 1524q-39 0 -57.5 26t-9.5 62q7 29 30 46t53 17q38 0 57.5 -26t10.5 -62q-9 -28 -33 -45.5t-51 -17.5zM997 1524q-38 0 -57 26t-10 62q7 28 31 45.5t53 17.5q38 0 57 -26t10 -62q-9 -28 -33 -45.5t-51 -17.5zM551 -33q-123 0 -215 43.5t-145 119t-77.5 179t-17.5 223 t41 250.5q79 306 248.5 474.5t411.5 168.5q120 0 210.5 -41t145 -115t80 -175.5t19 -223t-41.5 -258.5q-77 -306 -247 -475.5t-412 -169.5zM535 102q104 -1 185.5 36.5t140.5 111t100.5 167.5t74.5 222q57 218 36 362.5t-91.5 215.5t-177.5 73q-189 1 -308 -137t-186 -397 q-49 -200 -34.5 -345t83.5 -226t177 -83z" />
<glyph unicode="&#xd7;" horiz-adv-x="911" d="M809 864l-246 -246l246 -245l-88 -88l-246 245l-246 -245l-88 88l246 245l-246 246l88 88l246 -245l246 245z" />
<glyph unicode="&#xd8;" horiz-adv-x="1269" d="M1442 1393l-232 -232q86 -216 0 -549q-77 -306 -247 -475.5t-412 -169.5q-246 0 -365 170l-137 -137h-143l231 231q-85 219 0 551q79 306 248.5 474.5t411.5 168.5q245 0 364 -170l137 138h144zM309 756q-56 -215 -30 -383l759 760q-34 76 -95.5 115.5t-139.5 41.5 q-189 1 -308 -137t-186 -397zM1036 639q59 223 33 381l-758 -758q32 -75 90.5 -117t133.5 -43q104 -1 185.5 36.5t140.5 111t100.5 167.5t74.5 222z" />
<glyph unicode="&#xd9;" horiz-adv-x="1187" d="M831 1731l123 -228h-123l-182 228h182zM1346 1393l-25 -97q-93 -7 -111 -63l-219 -850q-55 -214 -182.5 -315t-355.5 -101q-99 0 -170.5 23t-112 62.5t-59 95.5t-16 118t21.5 135l215 834q5 21 -17.5 39.5t-60.5 21.5l25 97h352l-27 -97q-89 -7 -104 -61l-224 -860 q-11 -45 -15 -78.5t3.5 -72.5t31 -64t74 -41.5t126.5 -16.5q135 0 228 66.5t128 208.5l221 860q6 21 -15.5 38.5t-58.5 20.5l25 97h322z" />
<glyph unicode="&#xda;" horiz-adv-x="1187" d="M889 1731h182l-182 -228h-123zM1346 1393l-25 -97q-93 -7 -111 -63l-219 -850q-55 -214 -182.5 -315t-355.5 -101q-99 0 -170.5 23t-112 62.5t-59 95.5t-16 118t21.5 135l215 834q5 21 -17.5 39.5t-60.5 21.5l25 97h352l-27 -97q-89 -7 -104 -61l-224 -860 q-11 -45 -15 -78.5t3.5 -72.5t31 -64t74 -41.5t126.5 -16.5q135 0 228 66.5t128 208.5l221 860q6 21 -15.5 38.5t-58.5 20.5l25 97h322z" />
<glyph unicode="&#xdb;" horiz-adv-x="1187" d="M1051 1511h-125l-49 107l-103 -107h-135l168 177h166zM1346 1393l-25 -97q-93 -7 -111 -63l-219 -850q-55 -214 -182.5 -315t-355.5 -101q-99 0 -170.5 23t-112 62.5t-59 95.5t-16 118t21.5 135l215 834q5 21 -17.5 39.5t-60.5 21.5l25 97h352l-27 -97q-89 -7 -104 -61 l-224 -860q-11 -45 -15 -78.5t3.5 -72.5t31 -64t74 -41.5t126.5 -16.5q135 0 228 66.5t128 208.5l221 860q6 21 -15.5 38.5t-58.5 20.5l25 97h322z" />
<glyph unicode="&#xdc;" horiz-adv-x="1187" d="M748 1524q-39 0 -58 26t-10 62q7 29 30.5 46t53.5 17q38 0 57 -26t10 -62q-9 -29 -32.5 -46t-50.5 -17zM973 1524q-38 0 -57.5 26t-10.5 62q7 28 31 45.5t53 17.5q38 0 57.5 -26t10.5 -62q-9 -28 -33 -45.5t-51 -17.5zM1346 1393l-25 -97q-93 -7 -111 -63l-219 -850 q-55 -214 -182.5 -315t-355.5 -101q-99 0 -170.5 23t-112 62.5t-59 95.5t-16 118t21.5 135l215 834q5 21 -17.5 39.5t-60.5 21.5l25 97h352l-27 -97q-89 -7 -104 -61l-224 -860q-11 -45 -15 -78.5t3.5 -72.5t31 -64t74 -41.5t126.5 -16.5q135 0 228 66.5t128 208.5l221 860 q6 21 -15.5 38.5t-58.5 20.5l25 97h322z" />
<glyph unicode="&#xdd;" horiz-adv-x="1116" d="M866 1731h183l-183 -228h-123zM1278 1393l-27 -97q-58 0 -94 -45l-500 -671l-108 -422q-4 -20 21 -39.5t57 -22.5l-25 -96h-356l24 96q35 3 70 23.5t41 42.5l104 397l-155 676q-5 18 -11.5 29.5t-23.5 21.5t-43 10l27 97h323l-27 -97q-39 -1 -57.5 -22.5t-11.5 -46.5 l115 -512l385 518q16 20 3 41t-51 22l25 97h295z" />
<glyph unicode="&#xde;" horiz-adv-x="1038" d="M735 1137q165 0 251 -116.5t38 -301.5q-61 -242 -212.5 -351.5t-385.5 -109.5h-180l-66 -258h-262l25 96q40 3 71 21t37 39l281 1077q5 23 -16.5 41.5t-61.5 21.5l25 97h262l-68 -256h262zM854 748q34 138 -15.5 201t-160.5 63h-238l-161 -629h112q199 0 308.5 93 t154.5 272z" />
<glyph unicode="&#xdf;" horiz-adv-x="974" d="M1014 1268q-36 -141 -132.5 -241.5t-263.5 -182.5q46 -10 85 -26t76 -41.5t62 -62.5t39.5 -85t12 -114t-22.5 -144q-46 -175 -159 -289.5t-277 -114.5q-112 0 -171.5 53.5t-57.5 135.5l106 43q7 -97 115 -97q102 0 176 77t109 222q42 168 -30 248t-271 109l32 133 q203 86 298 179t120 212q9 58 5.5 94t-26 56t-50.5 27t-68 5q-119 -3 -197.5 -85.5t-130.5 -276.5l-284 -1102h-168q51 152 67 211l234 909q27 107 68 189t101.5 147t147 99t195.5 34q43 0 80 -6t74.5 -20t62 -37.5t42.5 -59.5t17 -85t-16 -113z" />
<glyph unicode="&#xe0;" d="M698 1432l123 -228h-123l-182 228h182zM825 158q-9 -40 -1.5 -57t38.5 -17q34 0 70 12l-27 -94q-50 -35 -119 -35q-98 0 -120 74q-105 -74 -250 -74q-85 0 -152 25.5t-110 71.5t-70 108t-34 136.5t0.5 155.5t29.5 167q33 126 91 223.5t131 155.5t154 87t167 29 q101 0 167 -43.5t87 -113.5l49 125h139zM676 193q23 93 71 279.5t72 279.5q22 105 -38 171t-163 68q-143 1 -238 -106t-140 -281q-37 -150 -32.5 -260.5t62.5 -174.5t164 -65q69 -1 135 23.5t107 65.5z" />
<glyph unicode="&#xe1;" d="M756 1432h182l-182 -228h-123zM825 158q-9 -40 -1.5 -57t38.5 -17q34 0 70 12l-27 -94q-50 -35 -119 -35q-98 0 -120 74q-105 -74 -250 -74q-85 0 -152 25.5t-110 71.5t-70 108t-34 136.5t0.5 155.5t29.5 167q33 126 91 223.5t131 155.5t154 87t167 29q101 0 167 -43.5 t87 -113.5l49 125h139zM676 193q23 93 71 279.5t72 279.5q22 105 -38 171t-163 68q-143 1 -238 -106t-140 -281q-37 -150 -32.5 -260.5t62.5 -174.5t164 -65q69 -1 135 23.5t107 65.5z" />
<glyph unicode="&#xe2;" d="M918 1212h-125l-50 107l-102 -107h-135l168 177h166zM825 158q-9 -40 -1.5 -57t38.5 -17q34 0 70 12l-27 -94q-50 -35 -119 -35q-98 0 -120 74q-105 -74 -250 -74q-85 0 -152 25.5t-110 71.5t-70 108t-34 136.5t0.5 155.5t29.5 167q33 126 91 223.5t131 155.5t154 87 t167 29q101 0 167 -43.5t87 -113.5l49 125h139zM676 193q23 93 71 279.5t72 279.5q22 105 -38 171t-163 68q-143 1 -238 -106t-140 -281q-37 -150 -32.5 -260.5t62.5 -174.5t164 -65q69 -1 135 23.5t107 65.5z" />
<glyph unicode="&#xe3;" d="M512 1247q8 28 18 49.5t28 44.5t47.5 35.5t68.5 12.5q41 0 68 -13.5t36.5 -29.5t17 -32.5t11.5 -19.5q15 -10 36 10t21 52h101q-33 -144 -164 -144q-43 0 -71.5 12t-37 25.5t-16 30.5t-10.5 20q-9 5 -20.5 2.5t-22 -18.5t-11.5 -37h-100zM825 158q-9 -40 -1.5 -57 t38.5 -17q34 0 70 12l-27 -94q-50 -35 -119 -35q-98 0 -120 74q-105 -74 -250 -74q-85 0 -152 25.5t-110 71.5t-70 108t-34 136.5t0.5 155.5t29.5 167q33 126 91 223.5t131 155.5t154 87t167 29q101 0 167 -43.5t87 -113.5l49 125h139zM676 193q23 93 71 279.5t72 279.5 q22 105 -38 171t-163 68q-143 1 -238 -106t-140 -281q-37 -150 -32.5 -260.5t62.5 -174.5t164 -65q69 -1 135 23.5t107 65.5z" />
<glyph unicode="&#xe4;" d="M614 1225q-39 0 -57.5 26t-9.5 62q7 29 30.5 46t53.5 17q38 0 57 -26t10 -62q-9 -28 -33 -45.5t-51 -17.5zM840 1225q-38 0 -57.5 26t-10.5 62q7 28 31 45.5t53 17.5q38 0 57.5 -26t10.5 -62q-9 -28 -33 -45.5t-51 -17.5zM825 158q-9 -40 -1.5 -57t38.5 -17q34 0 70 12 l-27 -94q-50 -35 -119 -35q-98 0 -120 74q-105 -74 -250 -74q-85 0 -152 25.5t-110 71.5t-70 108t-34 136.5t0.5 155.5t29.5 167q33 126 91 223.5t131 155.5t154 87t167 29q101 0 167 -43.5t87 -113.5l49 125h139zM676 193q23 93 71 279.5t72 279.5q22 105 -38 171t-163 68 q-143 1 -238 -106t-140 -281q-37 -150 -32.5 -260.5t62.5 -174.5t164 -65q69 -1 135 23.5t107 65.5z" />
<glyph unicode="&#xe5;" d="M721 1200q-61 0 -87 41.5t-13 97.5q13 48 51.5 75.5t85.5 27.5q62 0 88.5 -45t13.5 -99q-12 -44 -50.5 -71t-88.5 -27zM731 1270q23 0 38.5 13t18.5 30q7 22 -3.5 41.5t-36.5 19.5q-22 0 -37 -15t-21 -32q-5 -22 5.5 -39.5t35.5 -17.5zM825 158q-9 -40 -1.5 -57t38.5 -17 q34 0 70 12l-27 -94q-50 -35 -119 -35q-98 0 -120 74q-105 -74 -250 -74q-85 0 -152 25.5t-110 71.5t-70 108t-34 136.5t0.5 155.5t29.5 167q33 126 91 223.5t131 155.5t154 87t167 29q101 0 167 -43.5t87 -113.5l49 125h139zM676 193q23 93 71 279.5t72 279.5 q22 105 -38 171t-163 68q-143 1 -238 -106t-140 -281q-37 -150 -32.5 -260.5t62.5 -174.5t164 -65q69 -1 135 23.5t107 65.5z" />
<glyph unicode="&#xe6;" horiz-adv-x="1736" d="M1655 539l-723 2q-19 -89 -14.5 -169t27.5 -140t77.5 -95t134.5 -35q57 0 110.5 19.5t89.5 46.5t66 60.5t45 57.5t23 42l115 -56q-16 -33 -37.5 -66t-64 -78.5t-92 -79t-124 -57.5t-158.5 -24q-252 0 -339 203q-45 -71 -113.5 -118.5t-133 -66t-126.5 -18.5 q-101 0 -176 36.5t-118 99t-62.5 147t-14 181t32.5 200.5q64 246 207.5 370.5t328.5 124.5q103 0 170 -45t88 -116l60 129h131l-12 -47q123 79 276 79q113 0 192 -45.5t115.5 -124.5t43 -186t-24.5 -231zM1319 1004q-133 0 -221 -96t-135 -253h553q8 44 9.5 88t-8 92 t-31 84.5t-64.5 60.5t-103 24zM440 104q104 -1 183.5 58.5t130.5 167.5q-9 118 22 254q7 29 21 73q11 54 20 86q27 106 -34 176t-165 72q-143 1 -238 -106.5t-140 -280.5q-61 -221 -8.5 -360t208.5 -140z" />
<glyph unicode="&#xe7;" horiz-adv-x="976" d="M645 774q5 34 31.5 54.5t54 19t35.5 -22.5q22 29 19 61t-20 58.5t-57.5 43t-93.5 13.5q-156 -6 -247 -120t-136 -312q-21 -97 -22 -178t19 -145.5t70.5 -101.5t127.5 -38q67 -3 126.5 18t102 57t71 72.5t46.5 74.5l115 -56q-19 -39 -41.5 -74.5t-64.5 -79.5t-90.5 -75.5 t-120.5 -53.5t-154 -22h-27l-45 -55q24 12 55 12q66 0 99 -34.5t14 -104.5q-19 -74 -83 -118t-134 -44q-51 0 -92 25l28 45q6 0 15.5 0.5t34.5 7.5t45.5 18t41 36t29.5 59q10 47 -22 47q-20 0 -37 -7t-24.5 -12t-21.5 1.5t-36 29.5l76 100q-74 13 -129 48.5t-86 87t-49 111 t-20 126.5t4 127.5t20 120.5q25 110 68.5 201.5t110.5 168t165 119.5t219 43q151 0 236 -81t63 -195q-12 -74 -59.5 -117.5t-98.5 -52.5q-52 -10 -96.5 15t-34.5 79z" />
<glyph unicode="&#xe8;" horiz-adv-x="1009" d="M637 1432l123 -228h-123l-182 228h182zM946 539l-723 2q-19 -89 -14.5 -169t28 -140t78 -95t134.5 -35q57 0 110 19.5t89 46.5t66 60.5t45 57.5t23 42l115 -56q-16 -33 -37.5 -66t-63.5 -78.5t-91.5 -79t-124 -57.5t-158.5 -24q-101 0 -177 34t-119 92.5t-64 138 t-18.5 168t24.5 184.5q20 87 50 163t77.5 147t107 121.5t141.5 80.5t177 30q113 0 192 -45.5t115 -124.5t42.5 -186t-24.5 -231zM610 1004q-133 0 -221 -96t-135 -253h553q8 44 9.5 88t-8 92t-31 84.5t-64.5 60.5t-103 24z" />
<glyph unicode="&#xe9;" horiz-adv-x="1009" d="M694 1432h183l-183 -228h-123zM946 539l-723 2q-19 -89 -14.5 -169t28 -140t78 -95t134.5 -35q57 0 110 19.5t89 46.5t66 60.5t45 57.5t23 42l115 -56q-16 -33 -37.5 -66t-63.5 -78.5t-91.5 -79t-124 -57.5t-158.5 -24q-101 0 -177 34t-119 92.5t-64 138t-18.5 168 t24.5 184.5q20 87 50 163t77.5 147t107 121.5t141.5 80.5t177 30q113 0 192 -45.5t115 -124.5t42.5 -186t-24.5 -231zM610 1004q-133 0 -221 -96t-135 -253h553q8 44 9.5 88t-8 92t-31 84.5t-64.5 60.5t-103 24z" />
<glyph unicode="&#xea;" horiz-adv-x="1009" d="M856 1212h-125l-49 107l-102 -107h-136l168 177h166zM946 539l-723 2q-19 -89 -14.5 -169t28 -140t78 -95t134.5 -35q57 0 110 19.5t89 46.5t66 60.5t45 57.5t23 42l115 -56q-16 -33 -37.5 -66t-63.5 -78.5t-91.5 -79t-124 -57.5t-158.5 -24q-101 0 -177 34t-119 92.5 t-64 138t-18.5 168t24.5 184.5q20 87 50 163t77.5 147t107 121.5t141.5 80.5t177 30q113 0 192 -45.5t115 -124.5t42.5 -186t-24.5 -231zM610 1004q-133 0 -221 -96t-135 -253h553q8 44 9.5 88t-8 92t-31 84.5t-64.5 60.5t-103 24z" />
<glyph unicode="&#xeb;" horiz-adv-x="1009" d="M553 1225q-39 0 -58 26t-10 62q7 29 30.5 46t53.5 17q38 0 57.5 -26t10.5 -62q-9 -28 -33 -45.5t-51 -17.5zM778 1225q-38 0 -57 26t-10 62q7 28 31 45.5t53 17.5q38 0 57 -26t10 -62q-9 -28 -33 -45.5t-51 -17.5zM946 539l-723 2q-19 -89 -14.5 -169t28 -140t78 -95 t134.5 -35q57 0 110 19.5t89 46.5t66 60.5t45 57.5t23 42l115 -56q-16 -33 -37.5 -66t-63.5 -78.5t-91.5 -79t-124 -57.5t-158.5 -24q-101 0 -177 34t-119 92.5t-64 138t-18.5 168t24.5 184.5q20 87 50 163t77.5 147t107 121.5t141.5 80.5t177 30q113 0 192 -45.5 t115 -124.5t42.5 -186t-24.5 -231zM610 1004q-133 0 -221 -96t-135 -253h553q8 44 9.5 88t-8 92t-31 84.5t-64.5 60.5t-103 24z" />
<glyph unicode="&#xec;" horiz-adv-x="473" d="M377 1466l123 -227h-123l-182 227h182zM193 158q-9 -40 -2 -57t38 -17q34 0 70 12l-27 -94q-50 -35 -118 -35q-78 0 -110.5 46t-10.5 130l190 740q6 21 -14.5 33t-61.5 14l17 92q38 0 75 16.5t91 55.5h104z" />
<glyph unicode="&#xed;" horiz-adv-x="473" d="M436 1466h182l-182 -227h-123zM193 158q-9 -40 -2 -57t38 -17q34 0 70 12l-27 -94q-50 -35 -118 -35q-78 0 -110.5 46t-10.5 130l190 740q6 21 -14.5 33t-61.5 14l17 92q38 0 75 16.5t91 55.5h104z" />
<glyph unicode="&#xee;" horiz-adv-x="473" d="M590 1266h-125l-49 106l-103 -106h-135l168 176h166zM193 158q-9 -40 -2 -57t38 -17q34 0 70 12l-27 -94q-50 -35 -118 -35q-78 0 -110.5 46t-10.5 130l190 740q6 21 -14.5 33t-61.5 14l17 92q38 0 75 16.5t91 55.5h104z" />
<glyph unicode="&#xef;" horiz-adv-x="473" d="M301 1278q-39 0 -58 26t-10 62q7 29 30.5 46.5t53.5 17.5q38 0 57.5 -26.5t10.5 -62.5q-9 -28 -33 -45.5t-51 -17.5zM526 1278q-38 0 -57 26t-10 62q7 29 31 46.5t53 17.5q38 0 57 -26.5t10 -62.5q-9 -28 -33 -45.5t-51 -17.5zM193 158q-9 -40 -2 -57t38 -17q34 0 70 12 l-27 -94q-50 -35 -118 -35q-78 0 -110.5 46t-10.5 130l190 740q6 21 -14.5 33t-61.5 14l17 92q38 0 75 16.5t91 55.5h104z" />
<glyph unicode="&#xf0;" horiz-adv-x="1032" d="M729 1554q145 -96 223 -240.5t85 -317.5t-42 -375q-46 -176 -98 -295.5t-123.5 -202t-164 -119.5t-216.5 -37q-125 0 -215 77.5t-122 217t14 332.5q137 532 528 532q201 0 285 -139q-3 300 -234 465zM418 102q76 0 138.5 33.5t98.5 70.5t72 115t47 112.5t34 118.5l3 9 q5 16 12 53q42 187 -10.5 282t-183.5 95q-70 0 -126 -20t-108 -67t-93.5 -133t-72.5 -210q-21 -85 -21.5 -165.5t19.5 -146.5t69.5 -106.5t121.5 -40.5z" />
<glyph unicode="&#xf1;" horiz-adv-x="1101" d="M508 1247q8 28 18 49.5t28 44.5t47.5 35.5t68.5 12.5q41 0 68 -13.5t36.5 -29.5t17 -32.5t11.5 -19.5q15 -10 36 10t21 52h101q-33 -144 -164 -144q-43 0 -71.5 12t-37 25.5t-16 30.5t-10.5 20q-9 5 -20.5 2.5t-22 -18.5t-11.5 -37h-100zM987 723l-147 -565 q-9 -40 -3 -57t35 -17q42 0 72 12l-24 -94q-57 -35 -119 -35q-80 0 -111.5 45.5t-9.5 130.5l147 566q35 157 3 219.5t-134 62.5q-69 0 -135.5 -23.5t-127 -82t-87.5 -142.5l-196 -743h-156l227 885q6 20 -12.5 33t-58.5 14l14 90q19 0 37.5 3.5t39.5 13.5t31 15.5t34.5 21 t29.5 18.5h70l-9 -119q68 63 162 107t186 44q149 0 221 -100.5t21 -302.5z" />
<glyph unicode="&#xf2;" horiz-adv-x="1026" d="M662 1432l122 -228h-122l-183 228h183zM416 -33q-100 0 -175 35.5t-117.5 96.5t-62 144t-14.5 177t31 196q61 242 199 376t341 134q99 0 172.5 -35.5t115.5 -96.5t61 -144t14 -177t-31 -196q-63 -244 -197.5 -377t-336.5 -133zM412 102q152 -1 237.5 98.5t138.5 303.5 q26 96 30 182.5t-14 154.5t-65.5 108.5t-120.5 41.5q-78 1 -139 -26t-106.5 -81t-78 -125t-58.5 -169q-25 -97 -28 -183.5t16 -154.5t67.5 -108.5t120.5 -41.5z" />
<glyph unicode="&#xf3;" horiz-adv-x="1026" d="M719 1432h182l-182 -228h-123zM416 -33q-100 0 -175 35.5t-117.5 96.5t-62 144t-14.5 177t31 196q61 242 199 376t341 134q99 0 172.5 -35.5t115.5 -96.5t61 -144t14 -177t-31 -196q-63 -244 -197.5 -377t-336.5 -133zM412 102q152 -1 237.5 98.5t138.5 303.5 q26 96 30 182.5t-14 154.5t-65.5 108.5t-120.5 41.5q-78 1 -139 -26t-106.5 -81t-78 -125t-58.5 -169q-25 -97 -28 -183.5t16 -154.5t67.5 -108.5t120.5 -41.5z" />
<glyph unicode="&#xf4;" horiz-adv-x="1026" d="M881 1212h-125l-49 107l-103 -107h-135l168 177h166zM416 -33q-100 0 -175 35.5t-117.5 96.5t-62 144t-14.5 177t31 196q61 242 199 376t341 134q99 0 172.5 -35.5t115.5 -96.5t61 -144t14 -177t-31 -196q-63 -244 -197.5 -377t-336.5 -133zM412 102q152 -1 237.5 98.5 t138.5 303.5q26 96 30 182.5t-14 154.5t-65.5 108.5t-120.5 41.5q-78 1 -139 -26t-106.5 -81t-78 -125t-58.5 -169q-25 -97 -28 -183.5t16 -154.5t67.5 -108.5t120.5 -41.5z" />
<glyph unicode="&#xf5;" horiz-adv-x="1026" d="M475 1247q8 28 18 49.5t28 44.5t47.5 35.5t68.5 12.5q41 0 68 -13.5t36.5 -29.5t17 -32.5t11.5 -19.5q15 -10 36 10t21 52h101q-33 -144 -164 -144q-43 0 -71.5 12t-37 25.5t-16 30.5t-10.5 20q-9 5 -20.5 2.5t-22 -18.5t-11.5 -37h-100zM416 -33q-100 0 -175 35.5 t-117.5 96.5t-62 144t-14.5 177t31 196q61 242 199 376t341 134q99 0 172.5 -35.5t115.5 -96.5t61 -144t14 -177t-31 -196q-63 -244 -197.5 -377t-336.5 -133zM412 102q152 -1 237.5 98.5t138.5 303.5q26 96 30 182.5t-14 154.5t-65.5 108.5t-120.5 41.5q-78 1 -139 -26 t-106.5 -81t-78 -125t-58.5 -169q-25 -97 -28 -183.5t16 -154.5t67.5 -108.5t120.5 -41.5z" />
<glyph unicode="&#xf6;" horiz-adv-x="1026" d="M578 1225q-39 0 -58 26t-10 62q7 29 30.5 46t53.5 17q38 0 57.5 -26t10.5 -62q-9 -28 -33 -45.5t-51 -17.5zM803 1225q-38 0 -57.5 26t-10.5 62q7 28 31 45.5t53 17.5q38 0 57.5 -26t10.5 -62q-9 -28 -33 -45.5t-51 -17.5zM416 -33q-100 0 -175 35.5t-117.5 96.5t-62 144 t-14.5 177t31 196q61 242 199 376t341 134q99 0 172.5 -35.5t115.5 -96.5t61 -144t14 -177t-31 -196q-63 -244 -197.5 -377t-336.5 -133zM412 102q152 -1 237.5 98.5t138.5 303.5q26 96 30 182.5t-14 154.5t-65.5 108.5t-120.5 41.5q-78 1 -139 -26t-106.5 -81t-78 -125 t-58.5 -169q-25 -97 -28 -183.5t16 -154.5t67.5 -108.5t120.5 -41.5z" />
<glyph unicode="&#xf7;" horiz-adv-x="907" d="M469 799q-46 0 -77.5 30.5t-31.5 73.5q0 42 32 73.5t77 31.5q44 0 75 -31t34 -74q3 -42 -30 -73t-79 -31zM92 680h758v-123h-758v123zM469 229q-45 0 -77 31t-32 74q0 42 32 73t77 31t75.5 -30.5t33.5 -73.5q3 -42 -30 -73.5t-79 -31.5z" />
<glyph unicode="&#xf8;" horiz-adv-x="1026" d="M1112 1094l-168 -168q76 -180 6 -449q-63 -244 -197.5 -377t-336.5 -133q-200 0 -295 135l-103 -102h-112l176 176q-71 174 -4 440q61 242 199 376t341 134q190 0 285 -129l96 97h113zM236 590q-41 -157 -23 -283l575 576q-51 108 -170 108q-78 1 -139 -26t-106.5 -81 t-78 -125t-58.5 -169zM788 504q46 168 25 291l-575 -576q50 -117 174 -117q152 -1 237.5 98.5t138.5 303.5z" />
<glyph unicode="&#xf9;" horiz-adv-x="1060" d="M649 1432l123 -228h-123l-182 228h182zM801 158q-10 -40 -2.5 -57t37.5 -17q39 0 69 12l-24 -94q-50 -35 -119 -35q-60 0 -93 27t-36 78q-128 -105 -287 -105q-74 0 -130 17.5t-88.5 49t-50.5 73.5t-16.5 91.5t13.5 104.5l145 567q5 21 -24.5 39.5t-53.5 20.5l23 92 q77 0 166 72h104l-184 -713q-23 -89 -23 -151t41.5 -95t128.5 -33q75 0 144 32t118 85l228 875h155z" />
<glyph unicode="&#xfa;" horiz-adv-x="1060" d="M707 1432h182l-182 -228h-123zM801 158q-10 -40 -2.5 -57t37.5 -17q39 0 69 12l-24 -94q-50 -35 -119 -35q-60 0 -93 27t-36 78q-128 -105 -287 -105q-74 0 -130 17.5t-88.5 49t-50.5 73.5t-16.5 91.5t13.5 104.5l145 567q5 21 -24.5 39.5t-53.5 20.5l23 92q77 0 166 72 h104l-184 -713q-23 -89 -23 -151t41.5 -95t128.5 -33q75 0 144 32t118 85l228 875h155z" />
<glyph unicode="&#xfb;" horiz-adv-x="1060" d="M868 1212h-125l-49 107l-102 -107h-135l168 177h166zM801 158q-10 -40 -2.5 -57t37.5 -17q39 0 69 12l-24 -94q-50 -35 -119 -35q-60 0 -93 27t-36 78q-128 -105 -287 -105q-74 0 -130 17.5t-88.5 49t-50.5 73.5t-16.5 91.5t13.5 104.5l145 567q5 21 -24.5 39.5 t-53.5 20.5l23 92q77 0 166 72h104l-184 -713q-23 -89 -23 -151t41.5 -95t128.5 -33q75 0 144 32t118 85l228 875h155z" />
<glyph unicode="&#xfc;" horiz-adv-x="1060" d="M565 1225q-39 0 -57.5 26t-9.5 62q7 29 30.5 46t53.5 17q38 0 57 -26t10 -62q-9 -28 -33 -45.5t-51 -17.5zM791 1225q-38 0 -57.5 26t-10.5 62q7 28 31 45.5t53 17.5q38 0 57 -26t10 -62q-9 -29 -32.5 -46t-50.5 -17zM801 158q-10 -40 -2.5 -57t37.5 -17q39 0 69 12 l-24 -94q-50 -35 -119 -35q-60 0 -93 27t-36 78q-128 -105 -287 -105q-74 0 -130 17.5t-88.5 49t-50.5 73.5t-16.5 91.5t13.5 104.5l145 567q5 21 -24.5 39.5t-53.5 20.5l23 92q77 0 166 72h104l-184 -713q-23 -89 -23 -151t41.5 -95t128.5 -33q75 0 144 32t118 85l228 875 h155z" />
<glyph unicode="&#xfd;" horiz-adv-x="1028" d="M618 1432h183l-183 -228h-122zM952 791q-4 -99 -31 -217.5t-73.5 -243.5t-117 -240.5t-155 -206.5t-195.5 -145t-230 -53q-55 2 -117.5 19.5t-93.5 43.5l34 129q91 -61 197 -59q163 0 319 184l-245 936q-10 34 -26 46.5t-60 12.5l24 97h180l248 -957q69 110 120 240 t73.5 248t14 218.5t-51.5 151.5q0 -29 -23 -45.5t-61 -15.5q-46 4 -66 34.5t-12 67.5q10 48 54 70.5t98 17.5q101 -9 153.5 -107t42.5 -226z" />
<glyph unicode="&#xfe;" horiz-adv-x="1001" d="M565 1556l-133 -522q110 92 248 92q105 0 177 -50t104.5 -136t32.5 -198.5t-33 -241.5q-36 -137 -97 -241.5t-136 -167t-156 -93.5t-166 -31q-146 0 -228 82l-131 -500h-250l27 99q40 1 69.5 18.5t40.5 44.5l420 1632q4 23 -17 36.5t-61 15.5l23 90q92 0 193 71h73z M801 522q14 56 21.5 112.5t3.5 123t-24 116.5t-69 83.5t-123 33.5q-96 0 -152.5 -50.5t-88.5 -154.5l-152 -585q56 -99 195 -99q141 0 239.5 110.5t149.5 309.5z" />
<glyph unicode="&#xff;" horiz-adv-x="1028" d="M477 1225q-39 0 -57.5 26t-9.5 62q7 29 30.5 46t53.5 17q38 0 57 -26t10 -62q-9 -28 -33 -45.5t-51 -17.5zM702 1225q-38 0 -57 26t-10 62q7 28 31 45.5t53 17.5q38 0 57 -26t10 -62q-9 -28 -33 -45.5t-51 -17.5zM952 791q-4 -99 -31 -217.5t-73.5 -243.5t-117 -240.5 t-155 -206.5t-195.5 -145t-230 -53q-55 2 -117.5 19.5t-93.5 43.5l34 129q91 -61 197 -59q163 0 319 184l-245 936q-10 34 -26 46.5t-60 12.5l24 97h180l248 -957q69 110 120 240t73.5 248t14 218.5t-51.5 151.5q0 -29 -23 -45.5t-61 -15.5q-46 4 -66 34.5t-12 67.5 q10 48 54 70.5t98 17.5q101 -9 153.5 -107t42.5 -226z" />
<glyph unicode="&#x152;" horiz-adv-x="1593" d="M1726 1393l-63 -342l-98 -19q7 72 5 124.5t-31 82.5t-89 31h-322l-127 -498h189q41 0 73.5 31.5t49.5 93.5h90l-96 -371h-90q17 62 0.5 93.5t-58.5 31.5h-190l-138 -528h322q88 1 139 58.5t99 178.5l88 -18l-113 -342h-610q-87 -33 -215 -33q-111 0 -198.5 42.5 t-141.5 118.5t-81.5 177.5t-23 222.5t38.5 250q83 315 252.5 481t423.5 166q100 0 184 -32h731zM541 102q78 -3 139 66q44 173 133 518t133 518q-30 80 -137 86q-185 2 -305.5 -125t-194.5 -413q-47 -193 -32 -337t85 -227.5t179 -85.5z" />
<glyph unicode="&#x153;" horiz-adv-x="1767" d="M965 541q-1 -7 -4.5 -21.5t-4.5 -21.5q-15 -81 -7 -153t33 -126t78 -85.5t128 -31.5q57 0 110.5 19.5t89.5 46.5t66 60.5t45 57.5t23 42l114 -56q-16 -33 -37.5 -66t-63.5 -78.5t-91.5 -79t-124 -57.5t-158.5 -24q-257 0 -342 209q-151 -209 -403 -209q-100 0 -175 35.5 t-117.5 96.5t-62 144t-14.5 177t31 196q61 242 199 376t341 134q126 0 209 -56t121 -157q154 213 412 213q113 0 192 -45.5t115.5 -124.5t43 -186t-24.5 -231zM1350 1004q-133 0 -221.5 -96t-135.5 -253h553q8 44 9.5 88t-8 92t-31 84.5t-64 60.5t-102.5 24zM412 102 q152 -1 237.5 98.5t138.5 303.5l13 47q0 8 4 20q19 115 11 208t-59 152t-139 60q-78 1 -139 -26t-106.5 -81t-78 -125t-58.5 -169q-25 -97 -28 -183.5t16 -154.5t67.5 -108.5t120.5 -41.5z" />
<glyph unicode="&#x178;" horiz-adv-x="1116" d="M725 1524q-39 0 -58 26t-10 62q7 29 30.5 46t53.5 17q38 0 57.5 -26t10.5 -62q-9 -28 -33 -45.5t-51 -17.5zM950 1524q-38 0 -57 26t-10 62q7 28 31 45.5t53 17.5q38 0 57 -26t10 -62q-9 -28 -33 -45.5t-51 -17.5zM1278 1393l-27 -97q-58 0 -94 -45l-500 -671l-108 -422 q-4 -20 21 -39.5t57 -22.5l-25 -96h-356l24 96q35 3 70 23.5t41 42.5l104 397l-155 676q-5 18 -11.5 29.5t-23.5 21.5t-43 10l27 97h323l-27 -97q-39 -1 -57.5 -22.5t-11.5 -46.5l115 -512l385 518q16 20 3 41t-51 22l25 97h295z" />
<glyph unicode="&#x2c6;" horiz-adv-x="528" d="M664 1296h-125l-50 107l-102 -107h-135l168 177h166z" />
<glyph unicode="&#x2dc;" horiz-adv-x="542" d="M262 1331q8 28 18 49.5t28 44.5t47.5 35.5t68.5 12.5q41 0 68 -13.5t36.5 -29.5t17 -32.5t11.5 -19.5q15 -10 36 10t21 52h101q-33 -144 -164 -144q-43 0 -71.5 12t-37 25.5t-16 30.5t-10.5 20q-9 5 -20.5 2.5t-22 -18.5t-11.5 -37h-100z" />
<glyph unicode="&#x2000;" horiz-adv-x="870" />
<glyph unicode="&#x2001;" horiz-adv-x="1741" />
<glyph unicode="&#x2002;" horiz-adv-x="870" />
<glyph unicode="&#x2003;" horiz-adv-x="1741" />
<glyph unicode="&#x2004;" horiz-adv-x="580" />
<glyph unicode="&#x2005;" horiz-adv-x="435" />
<glyph unicode="&#x2006;" horiz-adv-x="290" />
<glyph unicode="&#x2007;" horiz-adv-x="290" />
<glyph unicode="&#x2008;" horiz-adv-x="217" />
<glyph unicode="&#x2009;" horiz-adv-x="348" />
<glyph unicode="&#x200a;" horiz-adv-x="96" />
<glyph unicode="&#x2010;" horiz-adv-x="628" d="M94 680h508l-33 -123h-506z" />
<glyph unicode="&#x2011;" horiz-adv-x="628" d="M94 680h508l-33 -123h-506z" />
<glyph unicode="&#x2012;" horiz-adv-x="628" d="M94 680h508l-33 -123h-506z" />
<glyph unicode="&#x2013;" horiz-adv-x="1091" d="M94 680h969l-31 -123h-969z" />
<glyph unicode="&#x2014;" horiz-adv-x="1646" d="M94 680h1524l-31 -123h-1524z" />
<glyph unicode="&#x2018;" horiz-adv-x="339" d="M264 1182q-44 72 8 178q27 56 79 91t122 38l-2 -94q-54 -6 -74 -37q-15 -29 31 -66q34 -24 25 -75q-7 -40 -36.5 -62t-70.5 -22q-57 0 -82 49z" />
<glyph unicode="&#x2019;" horiz-adv-x="342" d="M471 1442q44 -72 -8 -178q-27 -56 -79 -91t-122 -38l2 94q54 6 74 37q8 18 1 31.5t-32 33.5q-33 23 -24 76q7 40 36 62t70 22q57 0 82 -49z" />
<glyph unicode="&#x201a;" horiz-adv-x="342" d="M141 164q44 -72 -8 -178q-27 -56 -79 -91t-122 -38l2 94q54 6 74 37q8 18 1 31.5t-32 33.5q-33 23 -24 76q7 40 36 62t70 22q57 0 82 -49z" />
<glyph unicode="&#x201c;" horiz-adv-x="628" d="M264 1182q-44 72 8 178q27 56 79 91t122 38l-2 -94q-54 -6 -74 -37q-15 -29 31 -66q34 -24 25 -75q-7 -40 -36.5 -62t-70.5 -22q-57 0 -82 49zM547 1182q-44 72 8 178q27 56 79 91t122 38l-2 -94q-54 -6 -74 -37q-15 -29 31 -66q33 -23 24 -75q-7 -40 -36 -62t-70 -22 q-57 0 -82 49z" />
<glyph unicode="&#x201d;" horiz-adv-x="624" d="M471 1442q44 -72 -8 -178q-27 -56 -79 -91t-122 -38l2 94q54 6 74 37q8 18 1 31.5t-32 33.5q-33 23 -24 76q7 40 36 62t70 22q57 0 82 -49zM754 1442q43 -71 -9 -178q-27 -56 -78.5 -91t-121.5 -38l2 94q54 6 74 37q8 18 1 31.5t-32 33.5q-34 24 -25 76q7 40 36.5 62 t70.5 22q57 0 82 -49z" />
<glyph unicode="&#x201e;" horiz-adv-x="624" d="M141 164q44 -72 -8 -178q-27 -56 -79 -91t-122 -38l2 94q54 6 74 37q8 18 1 31.5t-32 33.5q-33 23 -24 76q7 40 36 62t70 22q57 0 82 -49zM424 164q44 -72 -8 -178q-27 -56 -79 -91t-122 -38l2 94q54 6 74 37q8 18 1 31.5t-32 33.5q-33 23 -24 76q7 40 36 62t70 22 q57 0 82 -49z" />
<glyph unicode="&#x2022;" horiz-adv-x="450" d="M223 475q-71 0 -106.5 47t-18.5 117q14 55 57.5 88t104.5 33q75 0 109 -46.5t18 -109.5q-13 -60 -57.5 -94.5t-106.5 -34.5z" />
<glyph unicode="&#x2026;" horiz-adv-x="1130" d="M55 -12q-51 0 -75.5 32t-12.5 82q9 39 40 62.5t73 23.5q53 0 77 -32.5t13 -77.5q-9 -41 -40.5 -65.5t-74.5 -24.5zM434 -12q-51 0 -75.5 32t-12.5 82q9 39 40 62.5t73 23.5q53 0 77 -32.5t13 -77.5q-9 -41 -40.5 -65.5t-74.5 -24.5zM811 -12q-51 0 -75.5 32t-12.5 82 q9 39 40 62.5t73 23.5q53 0 77 -32.5t13 -77.5q-9 -41 -40.5 -65.5t-74.5 -24.5z" />
<glyph unicode="&#x202f;" horiz-adv-x="348" />
<glyph unicode="&#x2039;" horiz-adv-x="534" d="M590 991l-352 -370l149 -373h-151l-160 373l340 370h174z" />
<glyph unicode="&#x203a;" horiz-adv-x="538" d="M-14 248l352 370l-150 373h152l160 -373l-340 -370h-174z" />
<glyph unicode="&#x205f;" horiz-adv-x="435" />
<glyph unicode="&#x20ac;" horiz-adv-x="1064" d="M872 1290q-161 0 -267.5 -106t-180.5 -322h373l-25 -114h-385q-3 -10 -8 -29.5t-8 -28.5q-2 -7 -5.5 -22t-5.5 -21h385l-34 -115h-367q-18 -193 54 -311.5t233 -118.5q125 0 215 66l69 -119q-142 -82 -319 -82q-118 0 -205.5 46t-136 126t-68.5 179t-12 214h-119l29 115 h106l13 55q2 8 5 23.5t5 22.5h-102l30 114h107q94 274 245 418.5t381 144.5q165 0 281 -84l-108 -108q-64 57 -175 57z" />
<glyph unicode="&#x2122;" horiz-adv-x="1542" d="M809 1556l18 -213l-55 -10q-13 78 -35.5 106t-87.5 29h-31v-391q0 -15 22 -31.5t48 -17.5v-70h-248v70q25 1 46.5 17t21.5 32v391h-29q-66 -1 -89 -29.5t-36 -105.5l-53 10l18 213h490zM1591 1487q-25 -1 -47 -19t-22 -34v-357q0 -15 21.5 -31.5t47.5 -17.5v-70h-241v70 q24 1 44.5 17.5t20.5 31.5v348l-141 -467h-103l-139 472v-353q0 -22 19.5 -34.5t46.5 -14.5v-70h-224v70q29 2 49.5 14.5t20.5 34.5v361q0 15 -22 31.5t-48 17.5v69h226l135 -460l139 460h217v-69z" />
<glyph unicode="&#x25fc;" horiz-adv-x="1126" d="M0 1126h1126v-1126h-1126v1126z" />
<glyph unicode="&#xfb03;" horiz-adv-x="1452" d="M1188 158q-9 -40 -2.5 -57t35.5 -17q41 0 71 12l-24 -94q-58 -35 -119 -35q-80 0 -111.5 45.5t-9.5 130.5l205 787q6 25 -9 37t-42 12h-267l-288 -1133q-16 -57 -33.5 -98t-45.5 -79.5t-70.5 -58.5t-98.5 -20q-43 0 -76 12.5t-50.5 32.5t-28 46t-9 52.5t5.5 51.5 q9 42 39.5 69t71.5 27q43 0 62 -30.5t9 -69.5q-15 -48 -59 -62q7 -20 35 -20q31 0 52.5 33t41.5 102q7 25 14 58t10 53l3 20l258 1014h-330l-289 -1133q-15 -55 -32 -95.5t-45 -80t-69.5 -60t-96.5 -20.5q-44 0 -77.5 12t-51.5 32t-29 46t-9.5 52.5t5.5 52.5q11 42 40.5 68 t69.5 26q44 0 63.5 -29.5t8.5 -68.5q-15 -48 -57 -62q4 -20 35 -20q30 0 51.5 32.5t40.5 102.5q6 20 12.5 53t9.5 55l4 23l258 1014h-90l31 115h90l55 213q15 54 34.5 95t51.5 79.5t82 59t115 20.5q51 0 89 -13t58 -33.5t31.5 -47t10 -54t-6.5 -53.5q-12 -43 -40 -68.5 t-66 -25.5q-46 0 -66.5 29.5t-9.5 70.5q14 44 59 59q-10 29 -53 29q-53 0 -84.5 -33t-52.5 -104q-9 -32 -21 -88t-20 -95l-8 -40h329l56 213q65 254 307 254q120 0 176.5 -62t40.5 -139q-9 -41 -39 -67.5t-72 -26.5q-43 0 -63.5 30.5t-9.5 71.5q11 42 57 53q-29 33 -80 33 q-60 0 -102.5 -36.5t-59.5 -102.5q-15 -57 -26 -100.5t-16 -65.5t-7.5 -35.5t-3.5 -16.5v-3h486z" />
<glyph unicode="&#xfb04;" horiz-adv-x="1472" d="M1194 158q-9 -40 -1.5 -57t38.5 -17q33 0 69 12l-26 -94q-50 -35 -119 -35q-78 0 -110.5 46t-10.5 130l307 1188q10 33 -32 49q0 -8 -4 -20q-12 -43 -40.5 -68.5t-66.5 -25.5q-46 0 -66.5 29.5t-9.5 70.5q14 44 60 59q-10 29 -54 29q-53 0 -84.5 -33t-52.5 -104 q-9 -32 -21 -88t-20 -95l-8 -40h184l-28 -115h-187l-288 -1133q-15 -55 -32.5 -95.5t-45 -79.5t-69.5 -60t-97 -21q-44 0 -77.5 12t-51.5 32t-29 46t-9.5 52.5t5.5 52.5q11 42 40.5 68t70.5 26q44 0 63 -29.5t8 -68.5q-15 -48 -57 -62q4 -20 35 -20q30 0 51.5 32.5 t40.5 102.5q6 20 13 53t10 55l4 23l258 1014h-326l-289 -1133q-15 -55 -32 -95.5t-45 -80t-69.5 -60t-96.5 -20.5q-44 0 -77.5 12t-51.5 32t-29 46t-9.5 52.5t5.5 52.5q11 42 40.5 68t69.5 26q44 0 63.5 -29.5t8.5 -68.5q-15 -48 -57 -62q4 -20 35 -20q30 0 51.5 32.5 t40.5 102.5q6 20 12.5 53t9.5 55l4 23l258 1014h-90l31 115h90l55 213q15 54 34.5 95t51.5 79.5t82 59t115 20.5q51 0 89 -13t58 -33.5t31.5 -47t10 -54t-6.5 -53.5q-12 -43 -40 -68.5t-66 -25.5q-46 0 -66.5 29.5t-9.5 70.5q14 44 59 59q-10 29 -53 29q-53 0 -84.5 -33 t-52.5 -104q-9 -32 -21 -88t-20 -95l-8 -40h325l56 213q15 54 34 95t51 79.5t82 59t115 20.5q130 0 174 -82q84 5 185 77h75z" />
</font>
</defs>
</svg>
